<svg xmlns="http://www.w3.org/2000/svg" xmlns:xlink="http://www.w3.org/1999/xlink" xmlns:fi="http://pattern.flaticon.com/" x="0" y="0" width="1500" height="750" viewBox="0 0 1500 750"><rect x="0px" y="0px" width="100%" height="100%" opacity="1" fill="#314357"/><defs><g transform="matrix(0.06879406686819373 0.028326968051217313 -0.028326968051217313 0.06879406686819373 281.6338226077101 -23.86237340326336)" id="L1_3"><g><path d="m504.317 186.038c-3.914-101.978-85.687-157.1-153.715-171.915-81.156-17.674-166.5-2.178-192.461 76.289-25.706 77.696-122.533 87.942-146.825 175.3-13.289 47.787 6.464 114.386 86.794 141.518 88.308 29.827 91.735 81.056 157.808 94.346 47.173 9.489 83.998-4.658 113.012-30.148l68.466-103.508c33.503-77.717 70.07-99.845 66.921-181.882z" fill="#faf3da"/><circle cx="264" cy="256" r="104" fill="#ffc263"/><path d="m504.317 186.038c-2.168-56.499-28.252-98.591-62.64-127.439 19.262 25.256 32.149 56.586 33.687 94.356 3.345 82.094-35.497 104.238-71.083 182.009-33.555 73.332-90.078 153.211-192.766 133.751-9.602-1.82-17.928-4.371-25.441-7.459 19.849 17.928 37.205 33.754 69.843 40.319 96.674 19.446 149.889-60.376 181.478-133.656 33.504-77.716 70.071-99.844 66.922-181.881z" fill="#fde8c5"/><path d="m326.813 173.012c13.236 17.474 21.18 39.178 21.18 62.789 0 57.553-46.656 104.21-104.21 104.21-23.611 0-45.315-7.945-62.789-21.181 19.027 25.12 49.087 41.421 83.029 41.421 57.553 0 104.21-46.656 104.21-104.21 0-33.941-16.3-64.001-41.42-83.029z" fill="#ffa95b"/></g><g><path d="m188.656 183.685c-3.185-2.649-7.914-2.214-10.562.971-16.625 19.991-25.78 45.343-25.78 71.385 0 61.597 50.113 111.709 111.709 111.709s111.709-50.113 111.709-111.709-50.112-111.709-111.709-111.709c-21.158 0-41.754 5.944-59.564 17.188-3.502 2.211-4.549 6.844-2.337 10.346 2.211 3.502 6.842 4.549 10.346 2.337 15.409-9.729 33.236-14.872 51.555-14.872 53.326 0 96.709 43.384 96.709 96.709s-43.384 96.709-96.709 96.709-96.709-43.384-96.709-96.709c0-22.545 7.924-44.491 22.313-61.794 2.649-3.184 2.214-7.913-.971-10.561z"/><path d="m511.812 185.751c-1.842-47.982-20.896-90.775-55.104-123.756-28.029-27.023-65.145-46.627-104.51-55.2-44.919-9.784-86.718-8.988-120.877 2.298-39.791 13.147-67.559 40.452-80.3 78.963-11.578 34.996-38.738 55.628-67.493 77.472-32.497 24.687-66.1 50.213-79.438 98.175-7.634 27.455-4.412 58.046 8.84 83.932 15.688 30.644 44.313 53.709 82.78 66.701 43.494 14.691 65.93 34.957 85.725 52.838 19.828 17.91 38.556 34.826 73.003 41.755 10.302 2.072 20.345 3.106 30.126 3.106 39.573 0 74.804-16.936 105.035-50.577 2.769-3.081 2.515-7.823-.565-10.592-3.082-2.769-7.823-2.515-10.592.565-15.931 17.728-33.411 30.433-51.956 37.761-21.062 8.323-44.307 10.015-69.09 5.031-30.408-6.117-46.859-20.976-65.907-38.181-20.877-18.858-44.54-40.232-90.98-55.917-74.607-25.199-94.789-86.299-81.968-132.404 11.983-43.092 42.136-65.998 74.059-90.249 29.311-22.267 59.621-45.291 72.661-84.705 11.351-34.308 35.16-57.668 70.765-69.432 31.613-10.444 70.681-11.097 112.979-1.885 36.685 7.989 71.236 26.223 97.291 51.343 31.364 30.239 48.836 69.498 50.526 113.532 2.055 53.548-13.125 79.903-34.134 116.38-9.962 17.297-21.254 36.903-32.179 62.245-10.685 24.786-21.712 45.373-33.71 62.937-2.336 3.42-1.458 8.087 1.962 10.423 3.419 2.336 8.087 1.458 10.423-1.962 12.548-18.368 24.029-39.78 35.099-65.459 10.582-24.545 21.643-43.751 31.403-60.697 21.425-37.196 38.347-66.576 36.126-124.441z"/></g></g><g transform="matrix(0.6584886077392417 -0.14633080088675354 0.14633080088675354 0.6584886077392417 110.05059743852448 254.1231070935032)" id="L1_4"><g><path d="m61 45v4c0 6.63-13.43 12-30 12s-30-5.37-30-12v-4c0 6.63 13.43 12 30 12s30-5.37 30-12z" fill="#aab2bd"/><path d="m15 46.88c0 1.24.86 2.31 2.07 2.58 4.6 1.02 9.31 1.54 14.03 1.54h9.67c4.74 0 9.39-1.24 13.51-3.59.45-.25.72-.73.72-1.24 0-.75-.3-1.47-.83-2l-1.75-1.75c-.27-.27-.63-.42-1.01-.42h-.98c-.28 0-.56-.08-.79-.24l-2.28-1.52c-.18-.13-.39-.2-.61-.22v-.01c-.06-.37-.13-.73-.22-1.08h.01c2.09-.55 4.13-1.3 6.08-2.25 5.19 2.16 8.38 5.09 8.38 8.32 0 6.63-13.43 12-30 12s-30-5.37-30-12c0-2.91 2.59-5.58 6.91-7.66-.59 1.78-.91 3.68-.91 5.66 2.47 1.64 5.21 2.81 8.07 3.44-.05.14-.07.29-.07.44z" fill="#ccd1d9"/><path d="m12 14.17c.39.36.81.7 1.24 1.02-1.29 2.21-2.08 4.75-2.22 7.45v.01c-1.01 2.2-2.39 4.22-4.08 5.98-1.68 1.76-3.68 3.25-5.94 4.37v-6.82c0-6.14 4.17-11.45 10.03-12.97.31.33.63.66.97.96z" fill="#b4dd7f"/><path d="m13.24 15.19c.72-1.23 1.59-2.36 2.59-3.36 2.99-2.98 7.11-4.83 11.67-4.83 5.38 0 10.47 2.42 13.86 6.6l2.96 3.64c1.5 1.84 3.33 3.34 5.39 4.42 2.05 1.08 4.33 1.76 6.69 1.96 1.3.1 2.45.7 3.28 1.6.82.9 1.32 2.1 1.32 3.4 0 1.51-.68 2.93-1.84 3.89-2.02 1.65-4.22 3.05-6.54 4.17-1.95.95-3.99 1.7-6.08 2.25h-.01c-1.84-7.98-8.99-13.93-17.53-13.93h-4c-4.91 0-9.35 1.97-12.6 5.15-.9-2.03-1.4-4.28-1.4-6.65 0-.28.01-.57.02-.85v-.01c.14-2.7.93-5.24 2.22-7.45z" fill="#ffc729"/><path d="m46.53 38.93c.09.35.16.71.22 1.08v.01c-.06-.02-.12-.02-.18-.02h-1.8c-.48 0-.93-.24-1.19-.64l-1.16-1.72c-.26-.4-.71-.64-1.19-.64h-1.64c-.38 0-.74-.15-1.01-.42l-1.16-1.16c-.27-.27-.63-.42-1.01-.42h-1.64c-.48 0-.93.24-1.19.64l-.97 1.45c-.36.54-1.03.77-1.65.56l-1.74-.58c-.15-.05-.3-.07-.45-.07h-1.18c-.38 0-.74.15-1.01.42l-1.34 1.34c-.16.16-.35.28-.56.35l-2.12.7c-.36.12-.66.38-.82.72l-.45.88c-.18.38-.52.65-.93.75l-2.28.57c-.63.16-1.08.73-1.08 1.39 0 .54-.31 1.03-.79 1.28l-.42.2c-.34.18-.6.48-.72.84-2.86-.63-5.6-1.8-8.07-3.44 0-1.98.32-3.88.91-5.66.89-2.7 2.4-5.11 4.36-7.07.04-.04.08-.08.13-.12 3.25-3.18 7.69-5.15 12.6-5.15h4c8.54 0 15.69 5.95 17.53 13.93z" fill="#fcd770"/><path d="m39.59 37h1.64c.48 0 .93.24 1.19.64l1.16 1.72c.26.4.71.64 1.19.64h1.8c.06 0 .12 0 .18.02.22.02.43.09.61.22l2.28 1.52c.23.16.51.24.79.24h.98c.38 0 .74.15 1.01.42l1.75 1.75c.53.53.83 1.25.83 2 0 .51-.27.99-.72 1.24-4.12 2.35-8.77 3.59-13.51 3.59h-9.67c-4.72 0-9.43-.52-14.03-1.54-1.21-.27-2.07-1.34-2.07-2.58 0-.15.02-.3.07-.44.12-.36.38-.66.72-.84l.42-.2c.48-.25.79-.74.79-1.28 0-.66.45-1.23 1.08-1.39l2.28-.57c.41-.1.75-.37.93-.75l.45-.88c.16-.34.46-.6.82-.72l2.12-.7c.21-.07.4-.19.56-.35l1.34-1.34c.27-.27.63-.42 1.01-.42h1.18c.15 0 .3.02.45.07l1.74.58c.62.21 1.29-.02 1.65-.56l.97-1.45c.26-.4.71-.64 1.19-.64h1.64c.38 0 .74.15 1.01.42l1.16 1.16c.27.27.63.42 1.01.42z" fill="#ffeaa7"/></g><g><path d="m29.821 12.208.357-1.968c-2.914-.531-5.96-.172-8.62 1.139l.883 1.794c2.278-1.12 4.887-1.417 7.38-.965z"/><path d="m36.614 13.12c-1.295-1.008-2.738-1.789-4.291-2.32l-.646 1.893c1.342.459 2.59 1.134 3.709 2.006z"/><path d="m54.89 36.621c1.715-.965 3.354-2.074 4.901-3.34 1.404-1.148 2.209-2.847 2.209-4.66 0-3.107-2.426-5.743-5.521-6.001-4.43-.369-8.578-2.56-11.382-6.01l-2.96-3.644c-3.598-4.427-8.933-6.966-14.637-6.966-6.034 0-11.365 3.071-14.512 7.731-3.081-2.636-4.988-6.539-4.988-10.884v-2.847h-2v2.847c0 3.706 1.224 7.126 3.306 9.876-5.547 2.093-9.306 7.418-9.306 13.457v8.438l1.447-.724c3.56-1.78 6.581-4.488 8.768-7.785.196 1.309.538 2.586 1.028 3.822-1.804 1.899-3.213 4.167-4.115 6.68-4.661 2.328-7.128 5.222-7.128 8.389v4c0 7.29 13.617 13 31 13s31-5.71 31-13v-4c0-3.142-2.509-6.074-7.11-8.379zm-27.39-28.621c5.1 0 9.868 2.27 13.084 6.228l2.96 3.644c3.146 3.871 7.8 6.328 12.769 6.742 2.067.171 3.687 1.931 3.687 4.007 0 1.211-.537 2.346-1.475 3.112-3.355 2.744-7.152 4.736-11.293 5.951-2.322-8.044-9.66-13.684-18.232-13.684h-4c-4.636 0-8.885 1.674-12.187 4.442-.534-1.586-.813-3.241-.813-4.942 0-2.456.59-4.773 1.611-6.839 1.847 1.158 3.948 1.975 6.236 2.327l.305-1.977c-2.041-.314-3.912-1.048-5.551-2.09 2.781-4.168 7.523-6.921 12.899-6.921zm-12.875 37.286c-1.106-.279-2.187-.625-3.232-1.063 1.133-2.654 2.803-4.987 4.865-6.882.762 1.357 1.282 2.851 1.539 4.433-1.06.286-1.797 1.241-1.797 2.342 0 .164-.091.311-.237.384l-.42.21c-.285.143-.515.348-.718.576zm5.141-4.008c-.325-1.877-.982-3.648-1.927-5.241 1.907-1.427 4.058-2.518 6.362-3.201.611 1.344 1.04 2.772 1.299 4.251l-.971.97c-.046.046-.103.081-.166.102l-2.119.706c-.607.203-1.119.647-1.403 1.218l-.441.883c-.057.112-.158.194-.279.225zm7.563-5.252c-.27-1.265-.656-2.491-1.161-3.664 1.207-.229 2.442-.362 3.698-.362h3.835c.312.662.599 1.336.845 2.027-.728.067-1.392.44-1.803 1.055l-.97 1.455c-.107.161-.312.229-.493.169l-1.745-.582c-.248-.082-.507-.124-.767-.124h-1.176c-.089 0-.176.016-.263.026zm9.317-2.003c-.222-.685-.466-1.362-.748-2.023h6.086c1.673 1.976 2.898 4.356 3.531 7h-.75c-.145 0-.278-.072-.358-.191l-1.15-1.727c-.452-.678-1.208-1.082-2.023-1.082h-1.643c-.114 0-.223-.045-.304-.126l-1.163-1.163c-.401-.401-.921-.633-1.478-.688zm-1.714-4.023c-.683-1.271-1.474-2.482-2.371-3.614 2.779.588 5.322 1.838 7.426 3.614zm-5.339-3.974c1.162 1.209 2.186 2.542 3.047 3.974h-2.773c-1.57 0-3.111.181-4.609.504-.87-1.543-1.952-2.965-3.22-4.23.963-.171 1.95-.274 2.962-.274h4c.2 0 .395.02.593.026zm-9.879.829c1.397 1.212 2.58 2.62 3.52 4.175-2.356.748-4.555 1.895-6.524 3.356-1.033-1.314-2.287-2.459-3.721-3.392 1.866-1.866 4.161-3.297 6.725-4.139zm-4.576 8.813c-2.353 2.104-4.266 4.713-5.553 7.7-.535-.282-1.062-.58-1.576-.905.117-3.745 1.465-7.177 3.632-9.936 1.362.846 2.535 1.91 3.497 3.141zm1.099 10.832.42-.21c.828-.415 1.343-1.248 1.343-2.174 0-.198.134-.369.325-.417l2.28-.57c.689-.173 1.267-.636 1.583-1.27l.442-.884c.05-.101.14-.179.247-.214l2.118-.706c.357-.119.687-.323.949-.587l1.342-1.342c.083-.081.192-.126.306-.126h1.176c.047 0 .093.007.136.022l1.744.582c1.041.346 2.185-.049 2.79-.958l.97-1.454c.08-.12.214-.192.358-.192h1.643c.114 0 .223.045.304.126l1.163 1.163c.458.459 1.068.711 1.716.711h1.643c.145 0 .278.072.358.191l1.15 1.727c.452.678 1.208 1.082 2.023 1.082h1.802c.085 0 .167.025.238.072l2.279 1.52c.401.267.867.408 1.348.408h.976c.114 0 .223.045.304.126l1.754 1.753c.338.34.533.811.533 1.291 0 .154-.083.296-.217.373-3.957 2.262-8.458 3.457-13.015 3.457h-9.664c-4.642 0-9.291-.51-13.82-1.517-.757-.168-1.284-.825-1.284-1.599 0-.164.091-.311.237-.384zm-14.237-15.192v-5.128c0-5.364 3.443-10.076 8.467-11.751-2.888 3.397-5.367 7.136-7.362 11.124l1.789.895c1.837-3.673 4.11-7.119 6.736-10.276-.879 1.895-1.425 3.969-1.571 6.155-1.736 3.723-4.559 6.862-8.059 8.981zm29 28.692c-15.044 0-27.845-4.615-28.919-10.237 4.444 4.866 15.567 8.237 28.919 8.237s24.475-3.371 28.919-8.237c-1.074 5.622-13.875 10.237-28.919 10.237zm0-4c-15.72 0-29-5.038-29-11 0-1.965 1.546-3.935 4.363-5.67-.234 1.189-.363 2.414-.363 3.67v.535l.445.297c2.329 1.552 4.88 2.665 7.581 3.359.132 1.581 1.248 2.894 2.823 3.244 4.672 1.039 9.467 1.565 14.255 1.565h9.664c4.905 0 9.749-1.287 14.008-3.72.754-.432 1.224-1.24 1.224-2.11 0-1.021-.397-1.982-1.12-2.705l-1.755-1.754c-.459-.459-1.069-.711-1.717-.711h-.976c-.085 0-.167-.025-.238-.072l-2.112-1.408c1.566-.474 3.084-1.057 4.552-1.742 4.684 2.028 7.366 4.646 7.366 7.222 0 5.962-13.28 11-29 11z"/><path d="m27.586 41h2.828v2h-2.828z" transform="matrix(0.707 -0.707 0.707 0.707 -21.205 32.808)"/><path d="m34 43.586h2v2.828h-2z" transform="matrix(0.707 -0.707 0.707 0.707 -21.569 37.929)"/><path d="m37.586 40h2.828v2h-2.828z" transform="matrix(0.707 -0.707 0.707 0.707 -17.569 39.586)"/><path d="m43 44.586h2v2.828h-2z" transform="matrix(0.707 -0.707 0.707 0.707 -19.64 44.586)"/><path d="m24 44.586h2v2.828h-2z" transform="matrix(0.707 -0.707 0.707 0.707 -25.205 31.151)"/></g></g><g transform="matrix(0.07174229624224748 -0.05124449726467975 0.05124449726467975 0.07174229624224748 -27.484701517132542 116.75253123314374)" id="L1_5"><path d="M327.085,171.114c-94.883,1.899-170.28,80.476-170.28,175.265l260.771,59.622h25.566l0,0  c33.887,0,61.358-27.438,61.358-61.284l0,0C504.5,247.634,424.73,169.159,327.085,171.114z" fill="#9e7325"/><path d="M426.033,202.835c-0.496-1.9-1.185-3.77-2.057-5.579c-0.911-1.781-2.027-3.483-3.301-5.099  c-0.638-0.807-1.309-1.578-2.009-2.31c-0.718-0.719-1.479-1.388-2.257-2.022c-1.56-1.266-3.222-2.367-4.956-3.284  c-3.548-1.77-7.381-2.806-11.32-2.963c-7.83-0.275-13.895-6.324-14.485-14.04c-0.132-1.97-0.474-3.918-1.013-5.82  c-0.564-1.873-1.351-3.671-2.307-5.408c-1.877-3.514-4.669-6.511-7.961-9.039c-6.741-4.881-15.02-6.73-22.758-4.791  c-7.548,1.71-15.143-2.165-17.87-9.529c-1.393-3.693-3.617-7.018-6.48-9.814c-2.91-2.684-6.406-4.969-10.398-6.263  c-3.943-1.427-8.11-1.802-12.067-1.458c-3.98,0.414-7.803,1.721-11.167,3.75c-6.691,4.154-15.042,2.592-20.031-3.333  c-1.256-1.53-2.676-2.942-4.239-4.165c-1.566-1.174-3.273-2.193-5.087-3.044c-0.907-0.425-1.841-0.809-2.797-1.148  c-0.957-0.322-1.938-0.56-2.936-0.775c-1.996-0.419-4.064-0.655-6.163-0.698c-2.099,0.044-4.167,0.28-6.163,0.698  c-0.998,0.214-1.979,0.453-2.936,0.775c-0.956,0.34-1.89,0.723-2.797,1.148c-1.814,0.851-3.521,1.869-5.088,3.044  c-1.563,1.223-2.983,2.635-4.239,4.165c-4.988,5.924-13.339,7.486-20.032,3.332c-3.364-2.029-7.186-3.336-11.166-3.75  c-3.957-0.344-8.124,0.031-12.067,1.458c-3.992,1.294-7.488,3.58-10.398,6.264c-2.863,2.796-5.087,6.122-6.48,9.815  c-2.726,7.363-10.32,11.238-17.871,9.529c-7.736-1.939-16.015-0.09-22.756,4.791c-3.292,2.528-6.084,5.526-7.962,9.039  c-0.956,1.737-1.743,3.536-2.308,5.409c-0.539,1.902-0.881,3.85-1.013,5.82c-0.588,7.715-6.653,13.764-14.485,14.04  c-3.939,0.157-7.771,1.193-11.319,2.963c-1.734,0.918-3.395,2.019-4.956,3.284c-0.778,0.634-1.54,1.303-2.257,2.022  c-0.7,0.732-1.371,1.503-2.009,2.31c-1.274,1.616-2.39,3.318-3.3,5.099c-0.872,1.809-1.562,3.679-2.057,5.579  c-1.035,3.773-1.081,7.805-0.396,11.658c0.174,0.953,0.25,1.899,0.234,2.828c0.005,0.942-0.08,1.868-0.249,2.767  c-0.339,1.798-1.015,3.49-1.982,5.001c-1.892,3.045-4.848,5.441-8.652,6.463c-3.759,1.087-7.272,2.953-10.287,5.484  c-1.473,1.282-2.833,2.724-4.057,4.302c-0.612,0.789-1.19,1.612-1.73,2.465c-0.519,0.864-0.991,1.763-1.428,2.687  c-0.872,1.85-1.558,3.754-2.051,5.68c-0.466,1.937-0.695,3.915-0.755,5.869c-0.042,1.962,0.06,3.892,0.451,5.818  c0.384,1.923,0.962,3.803,1.736,5.615c0.777,1.799,1.103,3.6,1.183,5.471l200.326,65.808l136.353-95.109  c34.771-7.225,39.02-31.149,39.02-31.149C427.114,210.639,427.068,206.607,426.033,202.835z" fill="#c4c65a"/><path d="M387.408,245.641c-14.46,11.751-81.002,50.627-136.353,95.109l145.186,47.694  c2.17-3.356,5.193-5.678,8.583-6.966c1.709-0.614,3.471-1.086,5.353-1.126c1.858-0.095,3.753,0.043,5.696,0.608  c3.89,1.057,8.129,1.077,12.258-0.007c2.091-0.5,4.058-1.398,6.041-2.404c1.918-1.085,3.767-2.399,5.462-3.925  c3.333-3.12,5.9-6.857,7.292-10.891c0.356-1.002,0.657-2.009,0.9-3.014c0.214-1.028,0.356-2.064,0.448-3.087  c0.09-1.024,0.121-2.04,0.093-3.043c-0.052-1.019-0.182-2.038-0.36-3.031c-0.356-1.962-0.32-3.855-0.091-5.715  c0.131-0.921,0.344-1.813,0.636-2.673c0.282-0.865,0.582-1.729,0.992-2.537c0.397-0.815,0.892-1.582,1.423-2.325  c0.506-0.754,1.087-1.465,1.739-2.127c1.339-1.311,2.838-2.483,4.607-3.395c0.9-0.461,1.78-0.98,2.634-1.554  c0.819-0.586,1.602-1.23,2.362-1.925c0.758-0.695,1.488-1.441,2.185-2.234c0.663-0.802,1.268-1.658,1.85-2.552  c0.571-0.896,1.135-1.827,1.604-2.805c0.447-0.982,0.854-2,1.216-3.046c0.776-2.085,1.137-4.318,1.386-6.591  c0.231-2.275,0.056-4.55-0.205-6.733c-0.392-2.186-0.972-4.292-1.78-6.254c-0.889-1.958-1.914-3.781-3.16-5.41  c-1.305-1.622-2.756-3.061-4.334-4.282c-1.603-1.195-2.967-2.587-3.977-4.125c-1.021-1.536-1.901-3.17-2.359-4.924  c-0.492-1.744-0.821-3.536-0.719-5.409c0.08-1.871,0.406-3.673,1.183-5.472c0.773-1.811,1.352-3.691,1.736-5.614  c0.391-1.925,0.493-3.856,0.451-5.818c-0.06-1.955-0.289-3.932-0.755-5.869c-0.494-1.925-1.179-3.83-2.051-5.68  c-0.437-0.924-0.909-1.823-1.428-2.687c-0.541-0.854-1.118-1.676-1.73-2.465c-1.224-1.578-2.584-3.02-4.057-4.302  c-0.335-0.281-0.676-0.554-1.023-0.819c-4.431-3.38-9.899-5.814-15.431-6.503C416.741,227.948,404.835,231.479,387.408,245.641z" fill="#915729"/><g><ellipse cx="265px" cy="203px" rx="61px" ry="61px" fill="#c95a3a"/><ellipse cx="130px" cy="221px" rx="61px" ry="61px" fill="#c95a3a"/><ellipse cx="68px" cy="308px" rx="61px" ry="61px" fill="#c95a3a"/><ellipse cx="361px" cy="293px" rx="61px" ry="61px" fill="#c95a3a"/></g><path d="M353.689,191.307c10.969-2.936,21.007,7.09,18.068,18.046l-5.73,21.361l-5.73,21.361  c-2.939,10.956-16.651,14.626-24.681,6.605l-15.656-15.637l-15.656-15.637c-8.03-8.02-4.356-21.716,6.613-24.651l21.386-5.724  L353.689,191.307z" fill="#a7a951"/><path d="M344.932,228.53l5.73-21.361c1.448-5.398-0.262-10.562-3.674-14.069l-14.686,3.93l-21.386,5.723  c-10.969,2.936-14.643,16.631-6.613,24.651l15.656,15.637l14.41,14.393c2.241-1.841,3.985-4.389,4.832-7.545L344.932,228.53z" fill="#d1d274"/><path d="M190.147,150.073c5.678-7.402,19.874-7.402,25.552,0l11.07,14.432l11.07,14.432  c5.678,7.402-1.42,16.655-12.776,16.655h-22.141h-22.141c-11.356,0-18.454-9.253-12.776-16.655l11.07-14.432L190.147,150.073z" fill="#a7a951"/><path d="M210.307,174.568l-11.07-14.432c-2.797-3.647-7.663-5.488-12.558-5.542l-7.602,9.91l-11.07,14.432  c-5.678,7.402,1.42,16.655,12.776,16.655h22.141h20.379c0.281-2.174-0.289-4.46-1.925-6.592L210.307,174.568z" fill="#d1d274"/><path d="M36.573,236.448c-1.225-9.244,8.812-19.27,18.068-18.046l18.045,2.386l18.045,2.386  c9.256,1.224,10.787,12.78,2.757,20.8l-15.656,15.637l-15.656,15.637c-8.03,8.021-19.6,6.491-20.825-2.754l-2.389-18.023  L36.573,236.448z" fill="#a7a951"/><path d="M68.17,239.53l-18.045-2.386c-4.56-0.603-9.304,1.531-12.803,4.951l1.641,12.376l2.389,18.023  c1.225,9.244,12.795,10.774,20.825,2.754l15.656-15.637l14.41-14.393c-1.34-1.736-3.362-2.949-6.028-3.302L68.17,239.53z" fill="#d1d274"/><path d="M34.088,346.379c0-94.788,75.397-173.366,170.28-175.265c97.646-1.954,177.415,76.52,177.415,173.603  l0,0c0,33.846,27.471,61.284,61.358,61.284l0,0H93.783C60.814,406.001,34.088,379.307,34.088,346.379L34.088,346.379z" fill="#ebd37a"/><path d="M382.357,353.001H34.464c3.3,29.81,28.593,53,59.319,53h349.359  C412.07,406.001,386.409,382.927,382.357,353.001z" fill="#d9b43a"/><path d="M458.03,215.786c-2.949-2.907-7.698-2.873-10.605,0.076c-2.908,2.95-2.874,7.699,0.076,10.606  c1.601,1.578,3.156,3.19,4.684,4.82c-0.426-0.357-0.859-0.704-1.294-1.036c-5.669-4.324-12.436-7.159-19.052-7.982  c-0.161-0.02-0.318-0.033-0.478-0.052c1.69-3.358,2.287-5.671,2.355-5.953c0.037-0.152,0.069-0.306,0.097-0.46  c0.916-5.144,0.727-10.315-0.522-14.865c-0.617-2.364-1.478-4.698-2.557-6.939c-0.026-0.054-0.053-0.108-0.08-0.162  c-1.103-2.156-2.479-4.284-4.098-6.339c-0.779-0.984-1.61-1.939-2.469-2.837c-0.037-0.04-0.075-0.079-0.114-0.117  c-0.845-0.846-1.771-1.677-2.839-2.546c-1.933-1.569-4.01-2.944-6.172-4.089c-0.054-0.028-0.106-0.055-0.16-0.082  c-4.587-2.289-9.422-3.549-14.406-3.748c-3.907-0.137-6.965-3.129-7.264-7.049c-0.167-2.474-0.598-4.95-1.281-7.361  c-0.011-0.039-0.022-0.077-0.034-0.116c-0.688-2.287-1.67-4.596-2.873-6.781c-2.265-4.239-5.633-8.093-10.01-11.454  c-0.056-0.043-0.112-0.085-0.169-0.126c-8.612-6.236-19.131-8.427-28.88-6.016c-3.989,0.873-7.733-1.108-9.129-4.876  c-1.771-4.695-4.549-8.912-8.257-12.534c-0.051-0.05-0.103-0.099-0.155-0.147c-3.976-3.667-8.365-6.306-13.049-7.845  c-4.707-1.684-9.811-2.302-15.151-1.834c-0.042,0.003-0.083,0.007-0.125,0.012c-5.001,0.52-9.935,2.175-14.348,4.838  c-3.412,2.119-7.665,1.383-10.279-1.721c-1.642-1.999-3.463-3.786-5.414-5.312c-0.04-0.032-0.081-0.063-0.122-0.094  c-1.965-1.473-4.118-2.763-6.402-3.834c-1.122-0.525-2.289-1.005-3.469-1.424c-0.041-0.015-0.082-0.029-0.124-0.043  c-1.402-0.471-2.738-0.78-3.785-1.005c-2.458-0.516-4.997-0.804-7.547-0.856c-0.104-0.002-0.207-0.002-0.311,0  c-2.549,0.053-5.088,0.341-7.586,0.865c-1.01,0.217-2.349,0.527-3.749,0.998c-0.04,0.014-0.081,0.028-0.121,0.042  c-1.183,0.42-2.351,0.9-3.469,1.425c-2.281,1.069-4.435,2.359-6.401,3.832c-0.042,0.032-0.084,0.064-0.126,0.097  c-1.949,1.526-3.771,3.313-5.354,5.241c-2.671,3.174-6.923,3.911-10.42,1.741c-4.331-2.613-9.264-4.268-14.265-4.788  c-0.042-0.004-0.083-0.008-0.125-0.012c-5.346-0.467-10.444,0.151-15.151,1.834c-4.685,1.539-9.074,4.179-13.05,7.847  c-0.052,0.048-0.104,0.097-0.154,0.146c-3.709,3.622-6.487,7.84-8.273,12.578c-1.38,3.726-5.125,5.706-9.115,4.832  c-9.748-2.409-20.266-0.219-28.877,6.017c-0.058,0.042-0.113,0.083-0.169,0.126c-4.378,3.361-7.745,7.215-10.01,11.455  c-0.214,0.401-0.382,0.815-0.517,1.233c-27.216,6.092-48.702,28.431-53.088,56.482l-6.574-0.869  c-6.646-0.881-13.851,1.828-19.262,7.24c-5.403,5.405-8.104,12.592-7.224,19.227l2.019,15.236C11.839,263.974,0,285.645,0,308.869  c0,22.546,10.893,43.357,29.277,56.26c8.145,27.912,33.97,48.371,64.506,48.371h286.359c4.143,0,7.5-3.358,7.5-7.5  s-3.357-7.5-7.5-7.5H93.782c-28.779,0-52.193-23.382-52.193-52.123c0-90.708,73.09-165.968,162.93-167.766  c45.124-0.905,87.741,15.974,119.928,47.523c32.139,31.501,49.838,73.614,49.838,118.581c0,17.638,6.687,33.742,17.653,45.929  c0.298,0.401,0.64,0.778,1.027,1.124c0.03,0.027,0.063,0.05,0.094,0.076c12.565,13.317,30.363,21.654,50.084,21.654  c37.969,0,68.858-30.856,68.858-68.784C512,295.88,492.833,250.092,458.03,215.786z M441.799,242.184  c0.235,0.179,0.466,0.363,0.692,0.552c1.084,0.95,2.096,2.026,3.003,3.195c0.451,0.583,0.88,1.191,1.273,1.809  c0.352,0.589,0.689,1.23,1.028,1.945c0.655,1.392,1.179,2.836,1.557,4.292c0.31,1.307,0.49,2.749,0.536,4.222  c0.035,1.651-0.061,2.974-0.308,4.189c-0.285,1.426-0.715,2.817-1.268,4.111c-1.075,2.494-1.661,5.149-1.786,8.037  c-0.134,2.467,0.175,4.943,0.972,7.787c0.615,2.315,1.712,4.64,3.327,7.069c1.458,2.221,3.375,4.23,5.699,5.973  c1.062,0.828,2.062,1.817,2.976,2.942c0.773,1.026,1.487,2.258,2.179,3.76c0.525,1.304,0.943,2.78,1.244,4.394  c0.178,1.53,0.326,3.275,0.171,4.802c-0.17,1.552-0.417,3.335-0.959,4.79c-0.021,0.054-0.04,0.109-0.059,0.164  c-0.275,0.794-0.585,1.575-0.922,2.32c-0.315,0.646-0.75,1.349-1.099,1.899c-0.459,0.706-0.877,1.289-1.274,1.777  c-0.493,0.556-1.01,1.082-1.531,1.56c-0.54,0.494-1.058,0.919-1.578,1.298c-0.58,0.384-1.178,0.734-1.796,1.05  c-2.298,1.185-4.398,2.724-6.42,4.706c-0.03,0.03-0.061,0.06-0.091,0.09c-0.947,0.961-1.809,2.009-2.561,3.116  c-0.823,1.159-1.454,2.199-1.976,3.26c-0.618,1.228-1.036,2.413-1.395,3.513c-0.433,1.279-0.75,2.619-0.944,3.982  c-0.006,0.046-0.012,0.091-0.018,0.137c-0.353,2.853-0.302,5.461,0.151,7.955c0.129,0.721,0.212,1.396,0.247,2.008  c0.017,0.682-0.007,1.384-0.067,2.075c-0.068,0.756-0.168,1.466-0.298,2.113c-0.176,0.71-0.395,1.435-0.671,2.211  c-0.952,2.758-2.774,5.458-5.274,7.812c-1.199,1.073-2.524,2.029-3.94,2.842c-1.402,0.708-2.878,1.395-4.233,1.718  c-0.054,0.013-0.108,0.027-0.162,0.041c-2.801,0.735-5.684,0.749-8.335,0.037c-2.53-0.725-5.144-1.013-7.991-0.879  c-3.161,0.087-5.854,0.932-7.611,1.563c-0.043,0.016-0.087,0.032-0.13,0.048c-1.013,0.385-1.987,0.833-2.927,1.333  c-4.17-5.857-7.199-12.574-8.753-19.835c0.04-0.018,0.082-0.03,0.122-0.049c24.05-11.297,39.589-35.739,39.589-62.27  c0-19.209-7.982-36.785-20.946-49.365c4.04-2.227,7.426-4.659,10.276-7.128c3.243-0.462,6.667-0.469,10.466,0.002  C434.009,237.656,438.202,239.44,441.799,242.184z M151.313,149.754c0.056,0.014,0.111,0.027,0.167,0.04  c11.392,2.578,22.554-3.413,26.545-14.198c0.979-2.598,2.536-4.959,4.628-7.021c2.383-2.181,4.921-3.718,7.545-4.569  c0.081-0.026,0.16-0.053,0.24-0.082c2.618-0.948,5.659-1.309,8.801-1.043c2.801,0.3,5.567,1.235,7.925,2.656  c9.748,6.051,22.25,4.003,29.781-4.943c0.929-1.131,1.94-2.131,3.006-2.973c1.132-0.84,2.38-1.583,3.713-2.208  c0.662-0.311,1.354-0.596,2.058-0.849c0.679-0.224,1.458-0.401,2.028-0.524c1.501-0.314,3.056-0.495,4.625-0.537  c1.568,0.042,3.122,0.222,4.584,0.528c0.895,0.193,1.537,0.358,2.068,0.533c0.703,0.252,1.396,0.538,2.059,0.848  c1.332,0.625,2.58,1.368,3.71,2.208c1.066,0.841,2.077,1.841,3.063,3.042c7.475,8.876,19.976,10.927,29.643,4.923  c2.438-1.47,5.204-2.405,8.006-2.706c3.143-0.265,6.183,0.096,8.803,1.044c0.079,0.028,0.159,0.056,0.239,0.082  c2.624,0.851,5.162,2.388,7.545,4.568c2.091,2.062,3.647,4.423,4.611,6.98c4.011,10.828,15.183,16.816,26.56,14.24  c0.056-0.013,0.111-0.026,0.167-0.04c5.436-1.36,11.426-0.076,16.452,3.53c2.629,2.034,4.591,4.241,5.874,6.642  c0.729,1.324,1.293,2.634,1.678,3.895c0.389,1.388,0.635,2.809,0.734,4.288c0.882,11.548,10.21,20.561,21.664,20.963  c2.784,0.111,5.54,0.831,8.189,2.14c1.274,0.681,2.505,1.5,3.65,2.43c0.63,0.513,1.164,0.987,1.629,1.448  c0.518,0.545,1.019,1.124,1.482,1.709c0.987,1.252,1.819,2.528,2.474,3.792c0.642,1.345,1.152,2.738,1.542,4.228  c0.66,2.407,0.764,5.17,0.303,8.012c-0.567,1.815-4.984,13.947-23.354,21.245c-6.427-3.718-13.526-6.426-21.099-7.908l4.351-16.217  c2.081-7.758-0.067-15.784-5.747-21.468c-5.688-5.691-13.727-7.845-21.503-5.767l-19.532,5.227  c-7.256-30.915-34.828-52.966-67.016-52.966c-14.688,0-28.67,4.558-40.495,13.172l-3.058-3.987  c-4.076-5.314-11.077-8.487-18.728-8.487c-7.649,0-14.65,3.173-18.727,8.487l-15.369,20.036  c-9.852-6.687-21.111-10.655-32.92-11.619C140.706,149.518,146.25,148.487,151.313,149.754z M238.502,166.132l-4.66-6.075  c9.178-6.591,19.997-10.079,31.361-10.079c25.332,0,47.014,17.445,52.526,41.843l-8.755,2.343c-0.027,0.007-0.053,0.017-0.08,0.024  C287.655,179.905,263.763,170.384,238.502,166.132z M130.216,167.343c7.826,0,15.426,1.67,22.407,4.872  c-25.524,8.22-49.023,22.157-68.939,41.116l-6.618-0.875C81.247,186.812,103.739,167.343,130.216,167.343z M46.971,227.466  c2.069-2.07,4.695-3.237,6.687-2.975l17.248,2.281c-9.121,10.6-16.93,22.084-23.331,34.249l-3.566-26.904  C43.746,232.139,44.909,229.529,46.971,227.466z M15,308.869c0-15.634,6.865-30.371,18.42-40.481l0.496,3.745  c0.489,3.69,2.054,6.928,4.428,9.404c-7.246,19.217-11.241,39.691-11.706,60.707C19.194,332.884,15,321.212,15,308.869z   M204.218,163.615c-5.684,0.114-11.323,0.499-16.907,1.134l8.788-11.456c1.219-1.589,3.897-2.616,6.824-2.616  c2.928,0,5.606,1.027,6.825,2.617l8.092,10.55C213.328,163.602,208.785,163.525,204.218,163.615z M324.132,205.636l31.497-8.429  c3.653-0.979,6.124,0.988,7.015,1.88c0.887,0.887,2.845,3.344,1.869,6.978l-8.95,33.361c-6.102-8.491-12.985-16.521-20.617-24.002  C331.452,211.999,327.842,208.741,324.132,205.636z M366.255,256.207c0.52-1.135,0.957-2.312,1.285-3.534l3.216-11.987  c25.513,4.488,44.434,26.794,44.434,52.961c0,18.847-10.036,36.346-25.979,46.016C388.404,309.943,380.479,281.492,366.255,256.207z   M443.142,398.501c-12.044,0-23.177-3.97-32.157-10.666c1.041-0.02,1.946,0.08,2.797,0.328c0.041,0.012,0.083,0.024,0.125,0.035  c5.173,1.406,10.723,1.416,16.052,0.03c2.894-0.703,5.468-1.905,7.607-2.99c0.1-0.051,0.199-0.104,0.297-0.159  c2.441-1.38,4.726-3.022,6.791-4.882c0.035-0.032,0.07-0.064,0.105-0.097c4.304-4.028,7.505-8.841,9.233-13.853  c0.442-1.243,0.82-2.509,1.124-3.763c0.019-0.079,0.036-0.157,0.053-0.236c0.258-1.241,0.452-2.568,0.577-3.959  c0.114-1.31,0.154-2.625,0.118-3.911c-0.002-0.056-0.004-0.112-0.007-0.168c-0.064-1.262-0.221-2.599-0.471-3.992  c-0.181-0.994-0.191-2.07-0.035-3.381c0.065-0.434,0.166-0.852,0.3-1.244c0.012-0.034,0.022-0.068,0.034-0.103  c0.18-0.553,0.37-1.113,0.548-1.463c0.018-0.035,0.035-0.07,0.053-0.105c0.161-0.331,0.416-0.739,0.78-1.247  c0.044-0.062,0.087-0.124,0.129-0.187c0.236-0.351,0.509-0.687,0.813-1c0.917-0.891,1.813-1.557,2.724-2.026  c1.156-0.592,2.299-1.266,3.396-2.003c0.063-0.042,0.125-0.085,0.187-0.129c1.026-0.735,2.054-1.571,3.062-2.492  c0.953-0.873,1.88-1.821,2.755-2.817c0.049-0.056,0.098-0.113,0.146-0.17c0.786-0.951,1.557-2.012,2.396-3.303  c0.638-1.002,1.379-2.213,2.04-3.591c0.021-0.044,0.042-0.089,0.063-0.134c0.532-1.168,1.02-2.387,1.45-3.623  c1.098-2.984,1.528-6.003,1.787-8.363c0.318-3.132,0.05-6.125-0.22-8.382c-0.018-0.145-0.039-0.29-0.064-0.433  c-0.501-2.793-1.25-5.413-2.227-7.786c-0.034-0.083-0.07-0.167-0.107-0.249c-1.199-2.638-2.517-4.882-4.029-6.861  c-0.037-0.049-0.075-0.098-0.114-0.146c-1.678-2.087-3.559-3.942-5.588-5.513c-0.036-0.027-0.071-0.055-0.107-0.082  c-0.933-0.695-1.689-1.465-2.215-2.265c-0.722-1.086-1.163-1.958-1.348-2.666c-0.013-0.047-0.025-0.094-0.039-0.141  c-0.348-1.235-0.49-2.177-0.443-3.047c0.05-1.145,0.228-2.016,0.588-2.851c0.969-2.268,1.706-4.654,2.188-7.065  c0.463-2.275,0.659-4.719,0.598-7.542c-0.078-2.587-0.401-5.074-0.959-7.394c-0.009-0.037-0.018-0.074-0.027-0.111  c-0.613-2.39-1.465-4.748-2.536-7.024c-0.573-1.211-1.156-2.305-1.781-3.344c-0.029-0.048-0.059-0.097-0.089-0.145  c-0.222-0.352-0.461-0.697-0.696-1.044C483.542,268.477,497,305.527,497,344.717C497,374.374,472.839,398.501,443.142,398.501z"/><circle cx="139" cy="255" r="7"/><circle cx="103" cy="285" r="7"/><circle cx="163" cy="309" r="7"/><circle cx="104" cy="249" r="7"/><circle cx="194" cy="219" r="7"/><circle cx="224" cy="289" r="7"/><circle cx="254" cy="239" r="7"/><circle cx="324" cy="299" r="7"/></g><g transform="matrix(0.07209646671927014 0.022183529362272147 -0.022183529362272147 0.07209646671927014 196.13162823307317 134.90813929303658)" id="L1_6"><g><path d="m466.806 368.945c0 75.3-90.35 75.3-150.58 75.3l-52.55-4.78-30.28-2.75c-90.35 0-174.23-28.05-190.25-88.33-16.01-60.29 43.83-128.51 133.68-152.38 23.86-6.34 49.23-8.91 73.93-8.15 68.26 2.13 131.33 29.81 143.09 74.08 1.43 5.38 2.25 10.81 2.5 16.28 46.92 18.16 70.46 45.55 70.46 90.73z" fill="#c76d33"/><path d="m263.676 439.465-30.28-2.75c-90.35 0-174.23-28.05-190.25-88.33-16.01-60.29 43.83-128.51 133.68-152.38 23.86-6.34 49.23-8.91 73.93-8.15-31.03 28.19-100.63 112.69 2.34 237.52 4.1 4.97 7.61 9.66 10.58 14.09z" fill="#af602d"/><path d="m170.345 297.073c4.817-12.002-6.868-24.025-19.04-19.654-36.451 13.092-101.649 44.961-98.504 104.703 4.353 82.709 159.878 29.284 149.984-15.434-4.087-18.472-17.83-24.857-32.554-25.989-11.874-.913-18.065-14.353-11.023-23.957 4.334-5.909 8.262-12.508 11.137-19.669z" fill="#a05423"/><path d="m429.664 163.086c12.658-8.247 29.195-6.054 39.094 5.36 5.461 6.297 7.895 14.128 7.531 21.688-.308 6.398 3.448 12.177 9.361 14.639 6.431 2.677 12.051 7.593 15.519 14.322 6.833 13.259 2.706 29.832-9.519 38.379-11.316 7.912-25.969 6.952-36.075-1.109-4.915-3.92-11.839-4.117-17.146-.748l-27.643 17.546-24.212-38.144 25.998-16.502c6.172-3.917 8.636-11.72 5.792-18.454-5.46-12.921-1.367-28.724 11.3-36.977z" fill="#fbf198"/><path d="m265.614 258.32c8.727-5.838 18.291-9.382 27.999-10.783 22.504-3.247 44.323-10.164 65.015-19.589l4.694-2.138c19.639-8.945 42.868-2.041 54.433 16.179 11.565 18.22 7.926 42.178-8.527 56.142l-5.721 4.856c-17.023 14.448-31.626 31.43-44.213 49.872-5.038 7.382-11.627 13.882-19.648 18.974-31.889 20.242-74.254 10.52-94.086-21.799-18.909-30.816-9.995-71.611 20.054-91.714z" fill="#af602d"/><path d="m334.326 416.435c-7.73 20.87-23.59 35.28-39.34 37.67l-22.38 1.55-52.74 3.64c-15.92-.2-33.62-12.3-44.14-31.9-9.87-18.36-10.79-38.32-3.78-51.79l40.18-15.74c4.78-1.79 8.5-6.02 9.41-11.48 2.78-16.68 12-31.08 26.19-32.06 14.37-.99 25.4 12.11 30.39 28.22 2.49 8.04 11.26 12.09 19.24 9.42 6.72-2.25 13.6-2.41 20-.04 19.5 7.24 27.09 35.22 16.97 62.51z" fill="#00c755"/><path d="m272.606 455.655-52.74 3.64c-15.92-.2-33.62-12.3-44.14-31.9-13.78-25.64-10.11-54.4 8.21-64.25 6.11-3.28 13.07-4.04 20.15-2.65 2.81.55 5.57.28 8.04-.63 8.58 20.37 21.77 42.24 40.97 65.51 9.5 11.51 15.87 21.55 19.51 30.28z" fill="#00b730"/><path d="m127.967 391.691c-2.77 15.637-12.073 27.784-22.825 31.469l-52.095 13.219c-11.208 1.887-25.177-4.355-35.068-16.779-12.945-16.251-14.029-36.919-2.422-46.167 3.871-3.082 8.665-4.504 13.815-4.428 5.991.088 10.794-4.736 10.708-10.728-.174-12.072 4.471-23.358 14.312-25.855 9.961-2.527 19.375 5.268 24.936 15.943 2.776 5.329 9.447 7.059 14.713 4.165 4.432-2.436 9.246-3.425 14.041-2.576 14.614 2.596 23.516 21.28 19.885 41.737z" fill="#00b730"/><circle cx="301" cy="376" r="37" fill="#f85647"/><circle cx="150" cy="406" r="37" fill="#e83826"/><path d="m431.224 401.913c-7.204 14.152-19.642 23.063-31 23.458l-53.686-2.525c-11.271-1.459-22.818-11.498-28.661-26.264-7.652-19.317-2.67-39.404 11.128-44.871 4.601-1.821 9.601-1.785 14.506-.213 5.706 1.829 11.706-1.387 13.368-7.144 3.349-11.6 11.079-21.043 21.221-20.566 10.265.483 17.001 10.683 19.212 22.514 1.104 5.907 6.982 9.504 12.863 8.269 4.95-1.039 9.843-.584 14.183 1.625 13.222 6.738 16.297 27.204 6.866 45.717z" fill="#00c755"/><path d="m481.866 429.185-15.03 37.57c-9.11 22.78-31.17 37.72-55.71 37.72h-310.28c-24.54 0-46.6-14.94-55.71-37.72l-15.03-37.57z" fill="#daf2fd"/><path d="m236.366 504.475h-135.52c-24.54 0-46.6-14.94-55.71-37.72l-15.03-37.57h194.89c-6.58 17.34-9.19 43.63 11.37 75.29z" fill="#c2eafb"/><path d="m504.456 429.185c0 6.24-2.53 11.88-6.61 15.97-4.09 4.08-9.74 6.61-15.98 6.61h-451.76c-12.48 0-22.59-10.11-22.59-22.58 0-6.08 2.4-11.59 6.29-15.65l114.97 8.43 109.88-15.37h243.21c12.48 0 22.59 10.11 22.59 22.59z" fill="#c2eafb"/><path d="m238.656 406.595s-17.08 17.11-18.35 45.17h-190.2c-12.48 0-22.59-10.11-22.59-22.58 0-6.24 2.53-11.89 6.61-15.98 4.09-4.08 9.74-6.61 15.98-6.61z" fill="#a8e1f6"/><path d="m252.838 7.534c-5.088 0-8.728 4.969-7.131 9.799 3.874 11.712 2.28 24.786-4.781 35.377-9.119 13.678-9.119 31.498 0 45.176 8.083 12.125 9.001 27.505 2.754 40.369-1.08 2.224.579 4.808 3.051 4.808 22.982 0 37.101-25.49 24.583-44.765-.089-.138-.18-.275-.271-.412-9.119-13.678-9.119-31.498 0-45.176 3.619-5.428 5.801-11.508 6.548-17.723 1.762-14.653-9.993-27.453-24.753-27.453z" fill="#daf2fd"/><path d="m178.351 7.534c-5.088 0-8.728 4.969-7.131 9.799 3.874 11.712 2.28 24.786-4.781 35.377-9.119 13.678-9.119 31.498 0 45.176 8.083 12.125 9.001 27.505 2.754 40.369-1.08 2.224.579 4.808 3.051 4.808 22.982 0 37.101-25.49 24.583-44.765-.089-.138-.18-.275-.271-.412-9.119-13.678-9.119-31.498 0-45.176 3.619-5.428 5.801-11.508 6.548-17.723 1.761-14.653-9.994-27.453-24.753-27.453z" fill="#c2eafb"/><path d="m327.442 7.534c-5.088 0-8.728 4.969-7.131 9.799 3.874 11.712 2.28 24.786-4.781 35.377-9.119 13.678-9.119 31.498 0 45.176 8.083 12.125 9.001 27.505 2.754 40.369-1.08 2.224.579 4.808 3.051 4.808 22.982 0 37.101-25.49 24.583-44.765-.089-.138-.18-.275-.271-.412-9.119-13.678-9.119-31.498 0-45.176 3.619-5.428 5.801-11.508 6.548-17.723 1.762-14.653-9.993-27.453-24.753-27.453z" fill="#daf2fd"/></g><g><path d="m481.866 399.095h-13.081c3.665-8.957 5.521-19.053 5.521-30.15 0-36.927-15.221-64.349-46.478-83.698 2.247-5.215 3.622-10.811 4.021-16.582l10.595-6.717c2.697-1.712 6.096-1.598 8.456.282 6.791 5.415 15.118 8.145 23.464 8.145 28.386-.002 46.182-30.066 33.471-54.708-4.133-8.04-10.993-14.368-19.308-17.815-3.036-1.264-4.9-4.155-4.751-7.349.483-9.875-2.839-19.452-9.356-26.972-12.385-14.274-32.928-17.103-48.848-6.73-15.282 9.952-21.219 29.375-14.117 46.181 1.419 3.363.199 7.233-2.899 9.202l-8.958 5.697c-9.744-3.813-20.391-4.508-30.553-1.972-44.985-33.737-126.315-45.178-194.145-27.153-43.799 11.635-82.348 33.983-108.544 62.926-2.78 3.071-2.543 7.813.527 10.593 3.063 2.772 7.806 2.552 10.594-.527 24.275-26.821 60.242-47.594 101.275-58.495 59.944-15.929 130.684-7.701 173.485 19.276-14.462 6.268-27.679 11.041-44.095 14.706-4.043.902-6.589 4.911-5.687 8.954s4.911 6.59 8.954 5.686c20.646-4.608 36.355-10.774 55.026-19.235 24.312-11.078 50.55 7.322 50.55 32.495 0 10.533-4.598 20.477-12.61 27.28-9.728 8.246-16.049 13.586-25.603 23.888-14.588-.843-24.979 11.693-29.104 25.976-.48 1.664-2.159 2.624-3.874 2.074-4.766-1.528-9.549-1.883-14.098-1.115-13.413-12.36-32.737-15.296-48.993-7.973-9.044-21.287-25.382-28.809-39.305-25.903 1.933-21.6 15.31-40.87 35.389-49.782 3.786-1.68 5.493-6.111 3.813-9.897s-6.113-5.491-9.897-3.812c-28.068 12.456-45.672 41.063-44.498 71.808-6.945 6.751-11.986 16.981-14.069 29.475-.67 4.027-4.369 6.732-8.469 6.002-6.562-11.802-18.541-18.68-34.86-19.939-6.044-.463-9.099-7.203-5.557-12.033 5.107-6.956 9.163-14.126 12.054-21.314 7.232-18.003-10.266-36.071-28.537-29.513-26.968 9.697-62.892 26.961-84.662 54.849-5.406-1.381-10.987-.919-16.011 1.582.296-12.438 3.748-25.293 10.262-37.887 1.903-3.679.463-8.205-3.216-10.107-3.682-1.904-8.205-.463-10.107 3.216-10.652 20.594-14.262 42.02-10.523 62.092-1.322 4.279-2 9.09-1.925 14.274.024 1.769-1.34 3.158-3.094 3.131-24.791-.398-36.889 25.129-24.578 51.253-12.986 19.849 1.268 46.505 25.192 46.505h3.958l4.108 10.275c10.309 25.778 34.91 42.435 62.674 42.435h310.28c27.765 0 52.365-16.657 62.674-42.436l4.109-10.275h3.958c16.592 0 30.09-13.494 30.09-30.08-.001-16.591-13.499-30.089-30.09-30.089zm-67.843-172.616 2.573-1.634c9.306-5.912 12.956-17.56 8.677-27.7-4.272-10.111-.705-21.792 8.486-27.777 16.096-10.492 35.927 2.198 35.033 20.415-.442 9.446 5.172 18.253 13.98 21.919 5.047 2.093 9.21 5.936 11.727 10.83 5.143 9.97 2.067 22.35-7.152 28.796-8.303 5.806-19.192 5.473-27.099-.83-7.362-5.866-17.747-6.354-25.843-1.216l-4.177 2.652c-2.66-9.876-8.269-18.75-16.205-25.455zm5.911 71.52c26.831 16.602 39.372 39.245 39.372 70.946 0 11.637-2.41 21.768-7.157 30.15h-11.489c11.817-31.293-6.639-57.193-32.019-51.861-1.751.366-3.626-.55-3.952-2.305-1.77-9.484-5.821-17.198-11.312-22.226 13.062-13.46 20.815-17.944 26.557-24.704zm-78.717 60.638c9.723 3.113 20.028-2.355 22.863-12.202 2.74-9.485 8.08-15.444 13.715-15.17 5.568.269 10.337 6.712 12.147 16.413 1.876 10.066 11.797 16.324 21.775 14.236 3.447-.724 6.555-.4 9.231.962 9.357 4.771 11.003 21.089 3.587 35.648-.097.19-.199.38-.3.57h-96.885c-11.711-21.061-3.878-46.145 13.867-40.457zm-24.205-7.81c-9.518 9.488-14.204 28.059-6.221 48.268h-29.604c-.125-.132-.248-.265-.385-.39-13.959-12.79-12.838-35.148 2.426-46.459 10.125-7.522 23.514-7.793 33.784-1.419zm-88.079-1.21c2.511-15.067 10.116-25.208 19.373-25.834 8.615-.588 16.909 7.213 21.656 20.077-15.25 14.559-18.181 37.451-7.863 55.235h-67.006c-1.628-9.738-6.375-18.387-13.151-24.935 5.025-5.667 12.326-7.951 20.697-6.305 12.391 2.43 24.217-5.757 26.294-18.238zm-78.357 26.828c13.966 0 25.858 9.58 29.202 22.65h-58.408c3.334-13.07 15.229-22.65 29.206-22.65zm3.264-91.972c6.094-2.189 11.947 3.826 9.547 9.802-2.421 6.02-5.862 12.086-10.229 18.034-10.521 14.346-1.253 34.503 16.5 35.863 7.296.563 13.006 2.454 17.25 5.708-6.791 2.031-12.78 6.037-17.374 11.748-11.44-5.314-24.606-5.579-36.265-.726-7.217-19.782-25.604-28.433-42.83-18.944-1.575.864-3.634.527-4.466-1.065-2.649-5.072-5.629-9.036-8.761-12.071 20.901-25.497 56.47-41.1 76.628-48.349zm-124.577 92.031c10.117.172 18.459-8.017 18.321-18.337-.142-9.87 3.272-17.135 8.699-18.508 5.385-1.362 11.819 3.417 16.392 12.175 4.718 9.043 15.999 12.201 24.988 7.271 10.691-5.885 19.54 2.16 22.508 14.143-7.293 6.646-12.415 15.65-14.115 25.848h-75.95c-4.771 0-9.284 1.121-13.296 3.106-4.295-12.753-.886-25.894 12.453-25.698zm452.603 67.76h-102.36c-4.143 0-7.5 3.358-7.5 7.5s3.357 7.5 7.5 7.5h82.248l-1.882 4.706c-8.018 20.05-27.151 33.005-48.746 33.005h-310.28c-21.594 0-40.728-12.955-48.746-33.005l-1.881-4.706h294.287c4.143 0 7.5-3.358 7.5-7.5s-3.357-7.5-7.5-7.5h-314.4c-8.321 0-15.09-6.765-15.09-15.08 0-8.321 6.77-15.09 15.09-15.09h451.76c8.32 0 15.09 6.77 15.09 15.09-.001 8.316-6.77 15.08-15.09 15.08z"/><path d="m236.933 134.98c-3.49 7.189 1.769 15.583 9.798 15.583 28.762 0 47.029-32.126 30.553-56.836-7.463-11.195-7.463-25.661 0-36.855 4.176-6.263 6.857-13.521 7.754-20.989 2.284-19.003-12.842-35.849-32.2-35.849-10.159 0-17.461 9.951-14.251 19.654 3.233 9.774 1.811 20.294-3.9 28.862-10.833 16.25-10.833 37.248 0 53.497 6.509 9.765 7.37 22.383 2.246 32.933zm10.235-78.109c8.279-12.42 10.348-27.665 5.679-41.837 10.074.005 18.545 8.689 17.299 19.06-.618 5.143-2.465 10.142-5.342 14.457-10.833 16.249-10.833 37.248 0 53.497 8.47 12.702 1.324 28.656-11.666 32.581 4.184-13.69 2.093-28.805-5.971-40.902-7.463-11.195-7.463-25.661.001-36.856z"/><path d="m162.446 134.98c-3.49 7.189 1.769 15.583 9.798 15.583 28.761 0 47.028-32.125 30.553-56.836-7.463-11.195-7.463-25.662 0-36.856 4.175-6.264 6.856-13.521 7.753-20.988 2.282-18.99-12.828-35.849-32.2-35.849-10.159 0-17.461 9.951-14.251 19.654 3.233 9.774 1.811 20.294-3.9 28.862-10.833 16.25-10.833 37.248 0 53.497 6.509 9.764 7.371 22.383 2.247 32.933zm10.234-78.109c8.28-12.42 10.349-27.665 5.68-41.837 10.128.005 18.539 8.738 17.299 19.06-.618 5.142-2.465 10.142-5.342 14.457-10.833 16.249-10.833 37.247 0 53.497 8.468 12.704 1.325 28.655-11.666 32.581 4.184-13.69 2.093-28.806-5.971-40.902-7.463-11.195-7.463-25.661 0-36.856z"/><path d="m311.537 134.98c-3.491 7.189 1.77 15.583 9.798 15.583 28.764 0 47.027-32.126 30.554-56.836-7.463-11.195-7.463-25.662 0-36.856 4.175-6.263 6.856-13.52 7.754-20.988 2.282-18.989-12.827-35.849-32.2-35.849-10.159 0-17.461 9.952-14.252 19.654 3.232 9.774 1.811 20.294-3.9 28.862-10.833 16.249-10.833 37.248 0 53.497 6.509 9.765 7.37 22.383 2.246 32.933zm10.234-78.109c8.279-12.419 10.349-27.665 5.68-41.837 10.087.005 18.545 8.7 17.3 19.059-.618 5.144-2.466 10.143-5.342 14.458-10.833 16.249-10.833 37.247 0 53.497 8.467 12.703 1.327 28.653-11.666 32.581 4.184-13.69 2.093-28.806-5.972-40.901-7.463-11.196-7.463-25.662 0-36.857z"/></g></g><g transform="matrix(0.07717886179021224 -0.04155784985252686 0.04155784985252686 0.07717886179021224 117.44695250965124 32.42831627525827)" id="L1_7"><path d="M488,200c0,15.53-5.71,30.37988-16.09009,44C437.98,288.5,354.1001,320,256,320S74.02,288.5,40.09009,244C29.71,230.37988,24,215.53,24,200,24,133.73,127.87012,80,256,80S488,133.73,488,200Z" fill="#fca529"/><ellipse cx="256px" cy="244px" rx="215px" ry="76px" fill="#f09b22"/><path d="M358.26,216.23A48.9312,48.9312,0,0,1,316.28,240H195.72A48.94086,48.94086,0,0,1,146.78,192c-.02-.32007-.02-.64014-.02-.96a48.685,48.685,0,0,1,.95-9.6001l2.64014-13.21a88.44868,88.44868,0,0,1,55.7-65.5,87.73828,87.73828,0,0,0,10.55-4.77q3.22485-1.70983,6.29-3.68994A87.885,87.885,0,0,0,237.55005,82.45L256,64l18.45,18.45a88.53079,88.53079,0,0,0,31.5,20.28,88.56709,88.56709,0,0,1,55.7,65.5l2.64014,13.21A48.93157,48.93157,0,0,1,358.26,216.23Z" fill="#ffefd6"/><path d="M236.90991,201.64014A88.50629,88.50629,0,0,1,255.91992,240H195.72A48.94086,48.94086,0,0,1,146.78,192c-.02-.32007-.02-.64014-.02-.96a48.685,48.685,0,0,1,.95-9.6001l2.64014-13.21a88.68589,88.68589,0,0,1,8.0498-23.07007l10.67017,10.67017a88.528,88.528,0,0,0,31.5,20.27978A88.43185,88.43185,0,0,1,236.90991,201.64014Z" fill="#e1cab4"/><path d="M236.90991,201.64014A88.50629,88.50629,0,0,1,255.91992,240H195.72A48.94086,48.94086,0,0,1,146.78,192h80.56006A87.08576,87.08576,0,0,1,236.90991,201.64014Z" fill="#e1cab4"/><path d="M358.26,216.23A48.9312,48.9312,0,0,1,316.28,240H256.08008a88.48351,88.48351,0,0,1,28.58984-48h.74a38.73752,38.73752,0,0,0,30.21021-14.52A36.75547,36.75547,0,0,0,318.7,173c1.11011-.53,2.2-1.08008,3.28-1.66016q3.22485-1.70984,6.29-3.68994a87.86077,87.86077,0,0,0,14.65991-11.81982l10.66016-10.66016A88.39261,88.39261,0,0,1,361.6499,168.23l2.64014,13.21A48.93157,48.93157,0,0,1,358.26,216.23Z" fill="#e1cab4"/><path d="M470.26,296.23A48.9312,48.9312,0,0,1,428.28,320H307.72A48.94086,48.94086,0,0,1,258.78,272c-.02-.32007-.02-.64014-.02-.96a48.685,48.685,0,0,1,.95-9.6001l2.64014-13.21a88.494,88.494,0,0,1,55.7-65.5,87.73828,87.73828,0,0,0,10.55-4.77q3.22485-1.70984,6.29-3.68994A87.885,87.885,0,0,0,349.55005,162.45L368,144l18.45,18.45a88.53079,88.53079,0,0,0,31.5,20.28,88.48818,88.48818,0,0,1,55.7,65.5l2.64014,13.21A48.93157,48.93157,0,0,1,470.26,296.23Z" fill="#ffefd6"/><path d="M246.26,296.23A48.9312,48.9312,0,0,1,204.28,320H83.72A48.94086,48.94086,0,0,1,34.78,272c-.02-.32007-.02-.64014-.02-.96a48.685,48.685,0,0,1,.95-9.6001l2.64014-13.21a88.494,88.494,0,0,1,55.7-65.5,87.73828,87.73828,0,0,0,10.55-4.77q3.22485-1.70984,6.29-3.68994A87.885,87.885,0,0,0,125.55005,162.45L144,144l18.45,18.45a88.53079,88.53079,0,0,0,31.5,20.28,88.48818,88.48818,0,0,1,55.7,65.5l2.64014,13.21A48.93157,48.93157,0,0,1,246.26,296.23Z" fill="#ffefd6"/><path d="M488,200v64c0,17.06006-6.89014,33.29-19.3,47.99C432.8999,354.37988,351.14014,384,256,384S79.1001,354.37988,43.30005,311.99C30.89014,297.29,24,281.06006,24,264V200c0,17.07007,6.89014,33.30005,19.31006,48C79.10986,290.37988,160.87012,320,256,320s176.89014-29.62012,212.68994-72C481.10986,233.30005,488,217.07007,488,200Z" fill="#fdca77"/><path d="M488,264v64c0,66.27-103.87012,120-232,120S24,394.27,24,328V264c0,17.06006,6.89014,33.29,19.30005,47.99C79.1001,354.37988,160.85986,384,256,384s176.8999-29.62012,212.7-72.01C481.10986,297.29,488,281.06006,488,264Z" fill="#fab53f"/><path d="M312,336v16l-24,30.87012Q272.31006,383.97973,256,384c-95.14014,0-176.8999-29.62012-212.69995-72.01C30.89014,297.29,24,281.06006,24,264V200c0,17.07007,6.89014,33.30005,19.31006,48C79.10986,290.37988,160.87012,320,256,320q16.28979,0,32-1.12988Z" fill="#fab53f"/><path d="M312,408v16l-24,22.87012Q272.31006,447.97973,256,448C127.87012,448,24,394.27,24,328V264c0,17.06006,6.89014,33.29,19.30005,47.99C79.1001,354.37988,160.85986,384,256,384q16.28979,0,32-1.12988Z" fill="#fca529"/><path d="M329.33105,78.00293,326.669,93.78027c44.34863,7.48145,83.9707,22.26075,111.56835,41.61524C472.75488,159.60254,480,183.88867,480,200c0,13.39453-4.8623,26.56738-14.45117,39.14941-15.9541,20.92383-43.69727,38.90723-80.23047,52.00782C347.292,304.793,302.57422,312,256,312s-91.292-7.207-129.31836-20.84277c-36.5332-13.10059-64.27637-31.084-80.22852-52.00684C36.8623,226.56738,32,213.39453,32,200c0-29.18945,22.71094-51.24316,41.7627-64.60449,27.59765-19.35449,67.21972-34.13379,111.56835-41.61524L182.669,78.00293C82.97949,94.82129,16,143.84863,16,200V328c0,35.19141,25.668,67.84863,72.27539,91.957C133.21094,443.19922,192.77637,456,256,456s122.78906-12.80078,167.72461-36.043C470.332,395.84863,496,363.19141,496,328V200C496,143.84863,429.02051,94.82129,329.33105,78.00293ZM32,246.501c.56494.78515,1.134,1.56958,1.72852,2.34961C70.38867,296.93164,157.63574,328,256,328q15.03442,0,29.67822-.95825L304,340.11914v9.13672l-20.10742,25.86377Q270.13331,375.989,256,376c-90.00977,0-171.10059-27.15137-206.58691-69.16992C37.8584,293.14258,32,278.73242,32,264ZM95.62695,405.74512C54.59668,384.52246,32,356.91211,32,328V310.50562q2.417,3.35339,5.1875,6.64672C75.58789,362.62012,161.47656,392,256,392q14.54845,0,28.77979-.9187L304,411.20605v9.36719l-19.42993,18.51465Q270.46839,439.99317,256,440C195.28711,440,138.332,427.835,95.62695,405.74512ZM480,328c0,28.91211-22.59668,56.52246-63.627,77.74512-29.64991,15.33691-66.17237,25.88379-106.04883,30.90234l7.19433-6.85547A8.001,8.001,0,0,0,320,424V408a7.99915,7.99915,0,0,0-2.21484-5.52539l-12.57935-13.17139c74.25684-8.22265,138.00952-34.73852,169.60767-72.15283q2.7777-3.2904,5.18652-6.645Zm0-64c0,14.73242-5.8584,29.14258-17.41211,42.82812-28.80444,34.10743-87.6543,58.41749-156.93115,66.36426l12.65869-16.28222A7.99958,7.99958,0,0,0,320,352V336a8.00113,8.00113,0,0,0-3.35254-6.51172l-6.57666-4.69409c75.32959-9.08643,138.4375-36.908,168.20264-75.94458.59375-.7793,1.16235-1.56274,1.72656-2.34717Z"/><path d="M161.76172,125.001l12.47461,10.01953A79.11709,79.11709,0,0,1,208.11816,110.499q1.30922-.49071,2.59888-1.01635A123.53735,123.53735,0,0,0,200,160h16a107.06267,107.06267,0,0,1,22.03955-65.35986,115.80078,115.80078,0,0,0,10.80518,68.938l14.31054-7.15624a99.81781,99.81781,0,0,1-8.166-65.56666A134.97018,134.97018,0,0,0,297.002,148.64648l2.001,1.60059,9.99414-12.49414-2-1.60059a119.02354,119.02354,0,0,1-34.38672-44.48779A99.39145,99.39145,0,0,0,303.88086,110.499a79.11357,79.11357,0,0,1,33.88184,24.52149L350.2373,125.001A95.10953,95.10953,0,0,0,309.499,95.51855a83.61029,83.61029,0,0,1-29.957-19.291L261.65723,58.34277a8.003,8.003,0,0,0-11.31446,0L232.458,76.22754a83.60565,83.60565,0,0,1-29.958,19.291A95.13283,95.13283,0,0,0,161.76172,125.001Z"/><path d="M253.12109,300.34668a56.8397,56.8397,0,0,0,7.01172-40.47656L257.335,245.88086A94.48628,94.48628,0,0,0,197.499,175.51855a83.61029,83.61029,0,0,1-29.957-19.291l-17.88476-17.88477a8.003,8.003,0,0,0-11.31446,0L120.458,156.22754a83.61029,83.61029,0,0,1-29.957,19.291A94.54469,94.54469,0,0,0,44.9541,211.54L58.2373,220.46A78.63871,78.63871,0,0,1,96.11816,190.499q1.30591-.48962,2.59278-1.01367A123.5405,123.5405,0,0,0,88,240h16a107.06159,107.06159,0,0,1,22.03394-65.35254,115.80635,115.80635,0,0,0,10.81079,68.93066l14.31054-7.15624a99.81781,99.81781,0,0,1-8.166-65.56666A134.97018,134.97018,0,0,0,185.002,228.64648l2.001,1.60059,9.99414-12.49414-2-1.60059a119.02354,119.02354,0,0,1-34.38672-44.48779A99.38773,99.38773,0,0,0,191.88184,190.499a78.58479,78.58479,0,0,1,49.76367,58.52051l2.79785,13.98926a40.87612,40.87612,0,0,1-5.041,29.10547Z"/><path d="M453.7627,220.46,467.0459,211.54A94.54469,94.54469,0,0,0,421.499,175.51855a83.61029,83.61029,0,0,1-29.957-19.291l-17.88476-17.88477a8.003,8.003,0,0,0-11.31446,0L344.458,156.22754a83.60565,83.60565,0,0,1-29.958,19.291,94.96347,94.96347,0,0,0-50.75586,44.75684l14.16016,7.44922A78.98573,78.98573,0,0,1,320.11816,190.499q1.30884-.49071,2.59815-1.01611A123.53479,123.53479,0,0,0,312,240h16a107.06124,107.06124,0,0,1,22.042-65.363,115.80035,115.80035,0,0,0,10.80274,68.94116l14.31054-7.15624a99.81671,99.81671,0,0,1-8.166-65.56641A134.96212,134.96212,0,0,0,409,228.64453l2.001,1.60156,9.998-12.49218-2.00293-1.60254a119.0227,119.0227,0,0,1-34.386-44.48682A99.39153,99.39153,0,0,0,415.88184,190.499,78.63871,78.63871,0,0,1,453.7627,220.46Z"/><rect x="227px" y="343px" width="17px" height="16px" transform="matrix(0.44726243926207293 -0.8944027674517452 0.8944027674517452 0.44726243926207293 -184.3837127685547 405.6426696777344)"/><rect x="259px" y="343px" width="17px" height="16px" transform="matrix(0.44726243926207293 -0.8944027674517452 0.8944027674517452 0.44726243926207293 -166.69610595703125 434.2635803222656)"/><rect x="227px" y="407px" width="17px" height="16px" transform="matrix(0.44726243926207293 -0.8944027674517452 0.8944027674517452 0.44726243926207293 -241.62548828125 441.01788330078125)"/><rect x="259px" y="407px" width="17px" height="16px" transform="matrix(0.4472135493031435 -0.8944272140983216 0.8944272140983216 0.4472135493031435 -223.93496704101562 469.6656188964844)"/></g><g transform="matrix(0.08146151683376145 0.020365379164321167 -0.020365379164321167 0.08146151683376145 326.3592930621129 197.9322328482451)" id="L1_8"><rect x="66px" y="80px" width="50px" height="30px" fill="#48c1e1"/><path d="M127.146,75.176c0,2.75-2.25,5-5,5H61.154c-2.75,0-5-2.25-5-5V39.137c0-2.75,2.25-5,5-5h60.991  c2.75,0,5,2.25,5,5L127.146,75.176L127.146,75.176z" fill="#046699"/><path d="M77.009,75.176V39.137c0-2.75,2.25-5,5-5H61.154c-2.75,0-5,2.25-5,5v36.039c0,2.75,2.25,5,5,5h20.854   C79.259,80.176,77.009,77.926,77.009,75.176z" opacity="0.1"/><path d="M50.57,349.825c-0.477-0.846-0.751-1.723-0.751-2.626c0-6.655,13.663-12.049,30.515-12.049  c5.98,0,11.552,0.684,16.258,1.857c-3.578-14.285-5.396-29.028-5.396-44.13c0-2.778,2.247-5.03,5.02-5.03h8.746  c-0.123-1.147-0.191-2.311-0.191-3.49c0-14.381,9.426-26.554,22.423-30.657c-1.173-2.451-2.04-5.098-2.527-7.908  c-2.397-13.835,5.006-27.105,17.198-32.73c-0.573-1.602-1.021-3.271-1.32-5.004c-1.955-11.277,2.604-22.183,10.961-28.876v-40.411  c0-15.347-12.527-27.902-27.84-27.902h-64.03c-15.312,0-27.839,12.556-27.839,27.902v222.25  C37.354,356.452,43.68,352.665,50.57,349.825z" fill="#a2dff9"/><path d="M127.192,253.701c-1.173-2.451-2.04-5.098-2.527-7.908c-2.397-13.835,5.006-27.105,17.198-32.73  c-0.573-1.602-1.021-3.271-1.32-5.004c-1.955-11.277,2.604-22.183,10.961-28.876v-17.495H31.797v103.285h79.467  C115.234,259.719,120.777,255.726,127.192,253.701z" fill="#046699"/><path d="M50.57,349.825c-0.477-0.846-0.751-1.723-0.751-2.626  c0-4.112,5.22-7.74,13.181-9.914V138.771c0-15.347,12.527-27.902,27.839-27.902H59.636c-15.312,0-27.839,12.556-27.839,27.902  v222.25C37.354,356.452,43.68,352.665,50.57,349.825z" opacity="0.1"/><path d="M243.891,190.067c0.301,1.732,0.439,3.456,0.442,5.157c12.634,1.11,23.526,10.1,26.711,22.758  c5.028-4.691,11.56-7.781,18.793-8.463c0.438-13.546,5.919-26.726,15.869-36.698c0.362-0.363,0.733-0.715,1.104-1.067  c-2.295-13.132-8.474-25.709-18.572-35.831c-2.046-2.049-5.361-2.05-7.408,0l-41.922,42.018  C241.363,181.463,243.109,185.559,243.891,190.067z" fill="#ef5050"/><path d="M292.877,209.371c14.63,0,26.962,9.824,30.811,23.246c1.023,0.578,2.013,1.213,2.953,1.916  c4.024-6.071,10.438-10.546,18.185-11.896c2.064-0.359,4.113-0.47,6.121-0.368c0.716-0.645,1.422-1.304,2.108-1.991  c0.197-0.198,0.385-0.402,0.579-0.602c1.972-5.359,5.328-10.045,9.634-13.625c6.759-13.605,7.647-29.703,1.843-44.343  c-0.086-0.222-0.219-0.42-0.383-0.586c-0.166-0.166-0.363-0.297-0.585-0.385c-20.163-8.031-43.101-3.287-58.438,12.085  c-9.95,9.973-15.431,23.152-15.869,36.698C290.838,209.425,291.852,209.371,292.877,209.371z" fill="#89c947"/><g><path d="M390.777,250.874c6.824-6.839,15.287-11.379,24.305-13.413c0.453-2.152,0.707-4.378,0.707-6.666   c0-17.748-14.355-32.137-32.064-32.137c-14.815,0-27.279,10.076-30.957,23.762c11.723,1.386,21.638,10.284,23.755,22.497   c0.271,1.565,0.397,3.122,0.399,4.658c4.158,0.365,8.1,1.686,11.577,3.76C389.231,252.497,389.983,251.671,390.777,250.874z" fill="#ffc502"/><path d="M127.192,253.701c-12.997,4.102-22.423,16.275-22.423,30.657c0,1.18,0.068,2.343,0.191,3.49h45.659   c-3.208-5.77-5.216-12.096-5.964-18.594C137.077,266.638,130.721,261.074,127.192,253.701z" fill="#ffc502"/></g><path d="M445.336,240.668c-0.08-0.203-0.201-0.385-0.354-0.538c-0.152-0.152-0.334-0.274-0.536-0.355  c-18.519-7.375-39.583-3.019-53.669,11.098c-0.795,0.797-1.548,1.624-2.28,2.464c6.63,3.942,11.571,10.626,12.991,18.819  c0.955,5.512,0.184,10.924-1.917,15.69h40.23C449.361,274.222,451.618,256.516,445.336,240.668z" fill="#89c947"/><path d="M127.192,253.701c-12.997,4.102-22.423,16.275-22.423,30.657c0,1.18,0.068,2.343,0.191,3.49h45.659  c-3.208-5.77-5.216-12.096-5.964-18.594C137.077,266.638,130.721,261.074,127.192,253.701z" fill="#ffc502"/><g><path d="M147.848,245.08c0.08-0.204,0.201-0.386,0.354-0.538c0.152-0.152,0.334-0.273,0.537-0.354   c18.518-7.375,39.583-3.019,53.668,11.098c1.702,1.706,3.26,3.517,4.674,5.41c-0.811-4.166-1.246-8.465-1.246-12.866   c0-2.898,2.342-5.249,5.236-5.249h49.77c-0.012-0.356-0.027-0.712-0.027-1.071c0-9.292,3.939-17.658,10.23-23.526   c-3.185-12.659-14.077-21.648-26.711-22.758c-0.003-1.701-0.142-3.425-0.442-5.157c-2.859-16.498-18.572-27.544-35.094-24.667   c-8.576,1.493-15.676,6.448-20.133,13.169c-6.454-4.821-14.807-7.086-23.383-5.594c-16.524,2.877-27.599,18.585-24.738,35.082   c0.299,1.733,0.747,3.403,1.32,5.004c-12.192,5.625-19.596,18.896-17.198,32.73c1.951,11.26,9.893,19.975,19.991,23.461   C143.731,261.221,144.738,252.923,147.848,245.08z" fill="#368c0e"/><path d="M401.488,272.158c-2.166-12.495-12.491-21.521-24.566-22.582c-0.002-1.537-0.129-3.093-0.399-4.658   c-2.583-14.902-16.775-24.878-31.696-22.28c-7.747,1.35-14.16,5.824-18.185,11.896c-0.94-0.703-1.93-1.338-2.953-1.916   c0.809,2.825,1.253,5.806,1.253,8.892c0,0.359-0.016,0.715-0.027,1.071h9.753c2.893,0,5.237,2.351,5.237,5.249   c0,14.982-4.922,28.833-13.225,40.019h72.892C401.672,283.082,402.443,277.67,401.488,272.158z" fill="#368c0e"/></g><path d="M324.914,242.58c0.012-0.356,0.027-0.712,0.027-1.071c0-17.749-14.355-32.137-32.064-32.137  c-17.707,0-32.064,14.388-32.064,32.137c0,0.359,0.016,0.715,0.027,1.071H324.914z" fill="#f7931e"/><path d="M207.08,260.695c-1.414-1.893-2.972-3.704-4.674-5.41c-14.085-14.117-35.15-18.473-53.668-11.098  c-0.203,0.081-0.385,0.202-0.537,0.354c-0.152,0.152-0.273,0.334-0.354,0.538c-5.624,14.186-4.402,29.862,2.772,42.768h66.313  c-0.066-1.196-0.188-2.387-0.339-3.573C212.024,277.212,208.742,269.242,207.08,260.695z" fill="#89c947"/><path d="M326.68,287.848c8.303-11.187,13.225-25.037,13.225-40.019c0-2.898-2.344-5.249-5.237-5.249H211.07  c-2.895,0-5.236,2.351-5.236,5.249c0,14.982,4.922,28.833,13.225,40.019H326.68z" fill="#ef5050"/><path d="M105.299,340.275c5.521-3.099,14.645-5.125,24.967-5.125c16.852,0,30.514,5.395,30.514,12.049  c0,0.903-0.273,1.779-0.751,2.625c22.626,9.325,39.129,28.949,42.446,52.388L355.711,344c7.469-2.836,15.816-2.223,22.784,1.677  c6.97,3.9,11.837,10.682,13.288,18.51l1.335,7.208l52.407-30.936c4.177-15.356,6.283-31.262,6.283-47.581  c0-2.778-2.247-5.03-5.021-5.03H96.215c-2.772,0-5.02,2.252-5.02,5.03c0,15.102,1.818,29.845,5.396,44.13  C100.012,337.861,102.977,338.972,105.299,340.275z" fill="#ffffff"/><path d="M105.299,340.275c4.991-2.801,12.929-4.72,22.031-5.064c-3.286-13.723-4.943-27.866-4.943-42.333   c0-2.778,2.247-5.03,5.02-5.03H96.215c-2.772,0-5.02,2.252-5.02,5.03c0,15.102,1.818,29.845,5.396,44.13   C100.012,337.861,102.977,338.972,105.299,340.275z" opacity="0.1"/><path d="M126.895,455.918l-0.259-1.394c-2.355-12.721,4.746-25.303,16.882-29.914l58.957-22.397  c-3.317-23.439-19.82-43.064-42.446-52.388c-2.408,4.272-10.541,7.691-21.076,8.926c7.722,6.177,11.255,12.668,8.108,16.219  c-4.166,4.704-18.47,2.47-31.944-4.988c-3.78-2.095-7.097-4.376-9.817-6.681c-2.719,2.305-6.033,4.586-9.816,6.681  c-13.473,7.458-27.777,9.693-31.945,4.988c-3.145-3.551,0.389-10.042,8.107-16.219c-10.53-1.235-18.665-4.654-21.074-8.926  c-25.38,10.459-43.07,33.873-43.07,61.1c0,36.97,32.598,66.94,72.807,66.94h49.986c5.027,0,9.936-0.469,14.676-1.36  C135.825,473.51,128.719,465.771,126.895,455.918z" fill="#ef5050"/><path d="M126.895,455.918c2.355,12.72,13.496,21.952,26.484,21.947l227.111-0.088  c7.992-0.003,15.572-3.543,20.684-9.662c5.113-6.119,7.233-14.183,5.781-22.014l-15.172-81.915  c-1.451-7.828-6.318-14.61-13.288-18.51c-6.968-3.899-15.315-4.513-22.784-1.677l-212.193,80.61  c-12.136,4.611-19.237,17.193-16.882,29.914L126.895,455.918z" fill="#f7931e"/><path d="M39,410.925c0-21.495,11.032-40.61,28.16-52.858  c-8.322-1.577-14.535-4.599-16.59-8.242c-25.38,10.459-43.07,33.873-43.07,61.1c0,36.97,32.598,66.94,72.807,66.94h31.5  C71.598,477.865,39,447.895,39,410.925z" opacity="0.1"/><path d="M160.779,347.2c0-6.655-13.662-12.049-30.514-12.049c-10.322,0-19.445,2.026-24.967,5.125  c-5.519-3.099-14.641-5.125-24.965-5.125c-16.852,0-30.515,5.395-30.515,12.049c0,5.462,9.209,10.072,21.825,11.551  c-7.719,6.177-11.252,12.668-8.107,16.219c4.168,4.705,18.473,2.47,31.945-4.988c3.783-2.095,7.098-4.376,9.816-6.681  c2.721,2.305,6.037,4.586,9.817,6.681c13.475,7.458,27.778,9.692,31.944,4.988c3.146-3.551-0.387-10.042-8.108-16.219  C151.573,357.271,160.779,352.661,160.779,347.2z" fill="#368c0e"/><path d="M504.387,390.308l-1.954-10.546c-0.673-3.641-4.183-6.046-7.839-5.376l-75.454,13.86l48.177-32.205  c2.283-1.526,3.342-4.221,2.871-6.781c-0.133-0.711-0.383-1.408-0.756-2.07l-5.453-9.656c-0.886-1.572-2.375-2.724-4.125-3.189  c-1.749-0.467-3.613-0.213-5.172,0.708l-61.563,36.342l12.018,64.891l70.611,12.689c1.791,0.322,3.64-0.093,5.117-1.149  c1.479-1.057,2.468-2.668,2.734-4.462l1.625-10.902c0.112-0.75,0.096-1.492-0.035-2.199c-0.475-2.563-2.432-4.702-5.111-5.316  l-56.545-12.97l75.455-13.861C502.647,397.444,505.06,393.95,504.387,390.308z" fill="#89c947"/><path d="M405.594,438.754c-1.043,2.692-2.525,5.228-4.42,7.497c-5.111,6.119-12.691,9.659-20.684,9.662l-227.111,0.088   c-11.188,0.004-20.988-6.853-25.001-16.881c-2.031,4.723-2.734,10.047-1.742,15.404l0.259,1.394   c2.355,12.72,13.496,21.952,26.484,21.947l227.111-0.088c7.992-0.003,15.572-3.543,20.684-9.662   c5.113-6.119,7.233-14.183,5.781-22.014L405.594,438.754z" opacity="0.1"/><path d="M164.775,221.844c0.044,0.001,0.086,0.001,0.13,0.001c4.083,0,7.427-3.275,7.496-7.374c0.077-4.589,3.849-8.271,8.482-8.191  c2.313,0.036,4.446,0.996,6.007,2.704c2.794,3.059,7.539,3.273,10.596,0.479c3.058-2.793,3.273-7.538,0.479-10.596  c-4.313-4.721-10.454-7.486-16.847-7.585c-12.859-0.165-23.497,10.087-23.715,22.936  C157.333,218.36,160.634,221.774,164.775,221.844z"/><path d="M202.487,233.902c0.86,0.319,1.741,0.47,2.607,0.47c3.047,0,5.911-1.87,7.033-4.894c1.232-3.322,4.945-5.022,8.265-3.797  c1.669,0.616,2.973,1.859,3.67,3.499c1.621,3.811,6.027,5.589,9.837,3.967c3.813-1.621,5.588-6.025,3.968-9.837  c-2.299-5.404-6.774-9.669-12.281-11.702c-11.074-4.085-23.419,1.592-27.522,12.653  C196.623,228.145,198.604,232.461,202.487,233.902z"/><path d="M273.838,176.777c1.922,0,3.844-0.734,5.309-2.202l7.07-7.084c2.926-2.932,2.921-7.681-0.011-10.606  c-2.932-2.927-7.681-2.921-10.606,0.011l-7.07,7.084c-2.926,2.932-2.921,7.681,0.011,10.606  C270.004,176.047,271.921,176.777,273.838,176.777z"/><path d="M239.545,253.709h-9.996c-4.143,0-7.5,3.358-7.5,7.5s3.357,7.5,7.5,7.5h9.996c4.143,0,7.5-3.358,7.5-7.5  S243.688,253.709,239.545,253.709z"/><path d="M306.192,268.709h9.997c4.142,0,7.5-3.358,7.5-7.5s-3.358-7.5-7.5-7.5h-9.997c-4.143,0-7.5,3.358-7.5,7.5  S302.05,268.709,306.192,268.709z"/><path d="M511.761,388.942l-1.953-10.542c-1.245-6.736-7.127-11.625-13.986-11.625c-0.861,0-1.729,0.079-2.583,0.236l-39.76,7.304  l18.006-12.037c4.719-3.154,7.104-8.796,6.075-14.393c-0.286-1.533-0.822-3.004-1.598-4.381l-5.449-9.649  c-1.867-3.315-5.051-5.778-8.726-6.754c-1.8-0.48-3.682-0.587-5.518-0.348c2.005-11.066,3.039-22.368,3.039-33.873  c0-5.105-3.07-9.498-7.455-11.449c5.73-13.628,6.121-29.23,0.457-43.518c-0.459-1.162-1.141-2.199-2.024-3.083  c-0.876-0.876-1.901-1.553-3.064-2.02c-6.787-2.703-13.92-4.073-21.201-4.073c-0.931,0-1.858,0.024-2.782,0.068  c-1.039-20.933-18.364-37.644-39.514-37.644c-2.785,0-5.501,0.296-8.124,0.848c1.822-10.9,0.749-22.303-3.496-33.009  c-0.456-1.177-1.141-2.233-2.072-3.179c-0.896-0.896-1.947-1.587-3.113-2.05c-7.311-2.912-14.995-4.388-22.839-4.388  c-11.816,0-23.119,3.322-32.877,9.498c-3.565-10.327-9.444-20.022-17.658-28.255c-2.406-2.41-5.606-3.738-9.011-3.738  s-6.605,1.328-9.014,3.74l-36.313,36.396c-6.72-5.994-15.563-9.577-25.161-9.577c-2.178,0-4.377,0.191-6.536,0.567  c-7.823,1.362-15.022,5.191-20.541,10.799c-7.077-3.415-15.184-4.58-22.975-3.224c-1.714,0.298-3.377,0.718-4.991,1.23v-28.046  c0-19.314-15.523-35.055-34.725-35.387V87.48c5.878-1.017,10.366-6.14,10.366-12.304V39.137c0-6.892-5.607-12.5-12.5-12.5H61.154  c-6.893,0-12.5,5.608-12.5,12.5v36.039c0,6.164,4.488,11.287,10.366,12.304v15.904c-19.202,0.331-34.724,16.072-34.724,35.387  v218.896C9.322,371.19,0,390.059,0,410.925c0,41.046,36.025,74.44,80.307,74.44l300.187-0.088  c10.246-0.004,19.882-4.507,26.436-12.353c6.384-7.638,9.097-17.559,7.534-27.343l59.957,10.775c0.83,0.149,1.68,0.225,2.523,0.225  c2.99,0,5.855-0.918,8.281-2.652c3.119-2.228,5.23-5.677,5.793-9.46l1.624-10.897c0.234-1.561,0.208-3.133-0.077-4.674  c-1.032-5.572-5.275-9.993-10.81-11.261l-21.133-4.848l39.721-7.297c3.746-0.688,6.996-2.791,9.152-5.922  C511.647,396.447,512.451,392.673,511.761,388.942z M426.021,243.735c4.515,0,8.954,0.715,13.222,2.124  c3.814,11.614,2.386,24.141-3.586,34.489h-20.204l6.447-6.462c2.926-2.932,2.92-7.681-0.013-10.607s-7.682-2.921-10.606,0.012  l-3.411,3.419c-1.599-5.265-4.391-9.979-8.061-13.846C407.253,246.953,416.391,243.735,426.021,243.735z M383.725,206.159  c13.545,0,24.564,11.052,24.564,24.637c0,0.252-0.012,0.501-0.019,0.751c-7.906,2.571-15.193,6.866-21.408,12.699  c-0.989-0.375-1.992-0.723-3.022-1.008c-2.194-11.852-10.181-21.352-20.732-25.789C367.487,210.665,375.085,206.159,383.725,206.159  z M344.08,164.381c5.094,0,10.1,0.824,14.924,2.454c3.877,11.528,3.085,23.911-1.855,34.637c-4.061,3.699-7.356,8.229-9.608,13.321  c-1.339,0.078-2.678,0.226-4.001,0.456c-5.877,1.023-11.357,3.573-15.943,7.271c-1.564-2.86-3.479-5.499-5.673-7.875l17.199-17.238  c2.926-2.932,2.92-7.681-0.013-10.606c-2.932-2.926-7.681-2.921-10.607,0.012l-18.798,18.841c-3.577-1.691-7.443-2.867-11.506-3.417  c1.755-8.95,6.098-17.383,12.816-24.117C319.854,169.26,331.597,164.381,344.08,164.381z M286.61,280.348h-6.501  c-1.095-2.786-3.802-4.761-6.977-4.761s-5.882,1.976-6.977,4.761h-7.648c1.776-2.892,1.417-6.724-1.09-9.226  c-2.932-2.926-7.681-2.921-10.607,0.011l-7.069,7.084c-0.635,0.636-1.123,1.361-1.482,2.131h-15.265  c-5.717-8.773-9.206-19.128-9.619-30.268h118.986c-0.413,11.14-3.902,21.495-9.619,30.268h-15.885  c-0.358-0.77-0.848-1.496-1.482-2.132l-7.068-7.084c-2.927-2.931-7.674-2.939-10.606-0.012  C285.192,273.622,284.833,277.455,286.61,280.348z M269.167,235.08c2.827-10.477,12.384-18.208,23.71-18.208  c11.327,0,20.884,7.732,23.711,18.208L269.167,235.08L269.167,235.08z M284.504,142.859c7.134,7.71,11.851,16.864,14.164,26.486  c-3.829,4.161-7.01,8.759-9.519,13.652c-1.139-0.698-2.474-1.107-3.907-1.107h-9.994c-4.142,0-7.5,3.358-7.5,7.5s3.358,7.5,7.5,7.5  h8.767c-0.493,2.071-0.876,4.167-1.154,6.279c-2.978,0.782-5.822,1.896-8.484,3.314c-4.999-8.627-13.277-15.056-23.085-17.635  c-0.003-0.021-0.007-0.042-0.011-0.063c-0.588-3.394-1.614-6.614-3.013-9.607L284.504,142.859z M166.566,180.365  c1.31-0.228,2.641-0.344,3.955-0.344c4.941,0,9.663,1.576,13.654,4.557c1.651,1.234,3.739,1.733,5.771,1.381  c2.032-0.353,3.829-1.526,4.969-3.245c3.521-5.311,8.908-8.835,15.168-9.925c1.313-0.229,2.647-0.344,3.964-0.344  c11.112,0,20.556,7.95,22.454,18.905c0.218,1.255,0.33,2.563,0.332,3.888c0.007,3.882,2.976,7.118,6.844,7.458  c8.385,0.737,15.523,6.014,18.832,13.448c-4.43,5.317-7.501,11.809-8.667,18.936H211.07c-5.318,0-9.881,3.283-11.784,7.929  c-9.41-6.409-20.5-9.862-32.122-9.862c-7.281,0-14.414,1.371-21.206,4.075c-1.152,0.46-2.182,1.139-3.06,2.017  c-0.89,0.89-1.573,1.933-2.021,3.077c-1.726,4.353-2.877,8.828-3.499,13.331c-2.688-3.06-4.582-6.865-5.322-11.135  c-1.764-10.176,3.563-20.308,12.95-24.64c3.528-1.628,5.229-5.68,3.92-9.337c-0.44-1.23-0.773-2.492-0.992-3.758  C145.783,194.376,154.143,182.528,166.566,180.365z M171.284,278.297l2.046,2.051h-18.013c-4.044-9.382-4.658-20.061-1.375-30.077  c4.274-1.411,8.711-2.125,13.222-2.125c11.301,0,21.932,4.417,29.933,12.436c1.064,1.067,2.055,2.185,2.986,3.34  c1.271,5.754,3.224,11.251,5.74,16.425H194.52l-12.617-12.646c-2.927-2.931-7.676-2.939-10.606-0.012  C168.364,270.616,168.358,275.365,171.284,278.297z M124.235,263.238c3.591,4.811,8.278,8.701,13.678,11.336  c0.382,1.946,0.851,3.875,1.431,5.774h-26.737C113.799,273.083,118.169,266.89,124.235,263.238z M63.654,41.637h55.991v31.039  H63.654V41.637z M109.279,87.676v15.693H74.021V87.676H109.279z M39.297,169.187H88c4.143,0,7.5-3.358,7.5-7.5s-3.357-7.5-7.5-7.5  H39.297v-15.416c0-11.25,9.124-20.402,20.339-20.402h64.028c11.216,0,20.34,9.152,20.34,20.402v15.416H130  c-4.143,0-7.5,3.358-7.5,7.5s3.357,7.5,7.5,7.5h14.004v6.657c-8.593,8.425-13.056,20.78-10.852,33.489  c0.004,0.025,0.009,0.051,0.013,0.077c-12.032,8.255-18.443,22.931-15.89,37.664c0.149,0.86,0.336,1.706,0.54,2.543  c-3.747,2.066-7.112,4.734-9.996,7.856H39.297V169.187z M39.297,272.472H99.11c-0.796,2.528-1.358,5.159-1.632,7.876h-1.264  c-6.903,0-12.52,5.621-12.52,12.53c0,11.909,1.107,23.6,3.252,35.038c-2.155-0.173-4.365-0.266-6.613-0.266  c-9.07,0-17.712,1.439-24.331,4.053c-10.125,3.998-12.924,9.675-13.535,13.603c-1.073,0.534-2.127,1.098-3.171,1.675v-74.509H39.297  z M134.267,364.607c2.701,2.161,4.352,3.998,5.309,5.323c-0.09,0.001-0.184,0.002-0.279,0.002c-4.245,0-11.872-1.711-20.545-6.512  c-3.229-1.789-6.204-3.81-8.604-5.843c-2.798-2.371-6.901-2.369-9.697,0.001c-2.4,2.035-5.374,4.055-8.6,5.84  c-8.675,4.803-16.302,6.514-20.546,6.514c-0.097,0-0.19-0.001-0.281-0.002c0.956-1.325,2.607-3.163,5.309-5.325  c2.361-1.89,3.356-5.014,2.523-7.921c-0.834-2.908-3.332-5.031-6.337-5.383c-7.319-0.858-11.947-2.721-14.114-4.077  c2.715-1.691,9.579-4.574,21.931-4.574c10.23,0,17.707,2.151,21.293,4.165c2.281,1.28,5.062,1.28,7.343,0.001  c3.588-2.014,11.066-4.165,21.296-4.165c12.353,0,19.216,2.884,21.93,4.574c-2.166,1.357-6.795,3.219-14.116,4.077  c-3.005,0.353-5.504,2.475-6.337,5.384C130.909,359.594,131.904,362.718,134.267,364.607z M15,410.925  c0-22.399,13.688-41.935,33.844-52.065c2.315,1.728,5.201,3.218,8.625,4.42c-1.358,2.319-2.304,4.813-2.527,7.414  c-0.296,3.458,0.762,6.742,2.982,9.248c2.933,3.312,7.435,4.991,13.381,4.991c7.924,0,18.321-3.137,27.811-8.391  c2.185-1.209,4.251-2.486,6.185-3.82c1.933,1.333,3.999,2.61,6.185,3.821c9.49,5.253,19.887,8.389,27.811,8.39h0.001  c5.944,0,10.446-1.679,13.378-4.99c2.221-2.506,3.28-5.79,2.983-9.249c-0.223-2.601-1.169-5.095-2.527-7.414  c3.424-1.203,6.311-2.693,8.626-4.42c15.985,8.034,27.896,21.985,32.143,38.588l-53.045,20.151  c-15.527,5.9-24.608,22.004-21.592,38.294l0.258,1.39c0.892,4.817,2.773,9.238,5.401,13.082H80.307  C44.297,470.365,15,443.701,15,410.925z M395.418,463.307c-3.698,4.428-9.141,6.968-14.931,6.97l-7.872,0.003l-4.918-26.555  c-0.755-4.073-4.666-6.766-8.741-6.009c-4.072,0.754-6.763,4.667-6.009,8.74l4.414,23.829l-25.806,0.01l-3.325-17.957  c-0.755-4.073-4.667-6.763-8.741-6.009c-4.072,0.754-6.763,4.667-6.009,8.74l2.82,15.232l-60.025,0.023l-4.518-24.388  c-0.756-4.073-4.666-6.763-8.741-6.008c-4.073,0.754-6.763,4.668-6.009,8.741l4.013,21.661l-87.644,0.034c-0.002,0-0.004,0-0.006,0  c-9.372,0-17.404-6.65-19.102-15.816l-0.258-1.39c-1.695-9.156,3.423-18.213,12.17-21.537l29.477-11.198l2.196,11.852  c0.669,3.611,3.821,6.135,7.365,6.135c0.454,0,0.914-0.042,1.376-0.127c4.072-0.755,6.762-4.668,6.007-8.741l-2.693-14.533  l43.755-16.622c3.872-1.471,5.819-5.803,4.348-9.675c-1.471-3.873-5.808-5.819-9.674-4.348l-20.361,7.735  c-5.712-20.223-20.386-37.116-39.845-46.794c-0.611-3.928-3.41-9.605-13.534-13.603c-6.619-2.614-15.261-4.053-24.331-4.053  c-6.242,0-12.203,0.689-17.465,1.944v-4.53c0-4.142-3.357-7.5-7.5-7.5c-1.751,0-3.357,0.604-4.634,1.61  c-1.183-7.823-1.845-15.769-1.955-23.827H343c4.143,0,7.5-3.358,7.5-7.5s-3.357-7.5-7.5-7.5h-3.069  c4.776-9.836,7.474-20.864,7.474-32.519c0-6.617-5.063-12.068-11.515-12.687c2.809-2.649,6.315-4.435,10.223-5.116  c1.145-0.199,2.307-0.3,3.455-0.3c9.683,0,17.911,6.927,19.564,16.469c0.191,1.105,0.289,2.245,0.29,3.39  c0.005,3.884,2.975,7.122,6.844,7.462c8.963,0.787,16.296,7.528,17.833,16.392c0.408,2.357,0.357,4.683-0.052,6.909H386  c-4.143,0-7.5,3.358-7.5,7.5s3.357,7.5,7.5,7.5h58.292c-0.186,13.758-1.958,27.197-5.263,40.236l-40.646,23.994  c-2.486-8.652-8.264-15.991-16.225-20.447c-8.929-4.997-19.54-5.778-29.11-2.143l-83.711,31.802  c-3.873,1.471-5.819,5.803-4.348,9.675c1.471,3.873,5.807,5.817,9.674,4.348l11.028-4.189l3.424,18.487  c0.669,3.611,3.821,6.136,7.366,6.136c0.453,0,0.913-0.042,1.375-0.127c4.072-0.754,6.763-4.667,6.009-8.74l-3.921-21.17  l58.429-22.197c5.414-2.056,11.412-1.615,16.459,1.21c5.038,2.819,8.528,7.679,9.576,13.331l15.173,81.915  C400.627,453.116,399.11,458.889,395.418,463.307z M422.178,404.601c-3.499,0.643-6.064,3.655-6.143,7.212  c-0.078,3.557,2.354,6.679,5.821,7.474l55.84,12.808l-1.395,9.359l-64.734-11.633l-10.119-54.634l56.384-33.284l4.697,8.317  l-47.558,31.791c-2.957,1.977-4.119,5.759-2.781,9.055c1.337,3.296,4.807,5.2,8.305,4.557l74.706-13.723l1.664,8.98L422.178,404.601  z"/></g></defs><g fi:class="KUsePattern"><pattern id="pattern_L1_3" width="350" height="350" patternUnits="userSpaceOnUse"><use xlink:href="#L1_3" x="-350" y="-350"/><use xlink:href="#L1_3" x="0" y="-350"/><use xlink:href="#L1_3" x="350" y="-350"/><use xlink:href="#L1_3" x="-350" y="0"/><use xlink:href="#L1_3" x="0" y="0"/><use xlink:href="#L1_3" x="350" y="0"/><use xlink:href="#L1_3" x="-350" y="350"/><use xlink:href="#L1_3" x="0" y="350"/><use xlink:href="#L1_3" x="350" y="350"/></pattern><rect x="0" y="0" width="100%" height="100%" fill="url(#pattern_L1_3)"/></g><g fi:class="KUsePattern"><pattern id="pattern_L1_4" width="350" height="350" patternUnits="userSpaceOnUse"><use xlink:href="#L1_4" x="-350" y="-350"/><use xlink:href="#L1_4" x="0" y="-350"/><use xlink:href="#L1_4" x="350" y="-350"/><use xlink:href="#L1_4" x="-350" y="0"/><use xlink:href="#L1_4" x="0" y="0"/><use xlink:href="#L1_4" x="350" y="0"/><use xlink:href="#L1_4" x="-350" y="350"/><use xlink:href="#L1_4" x="0" y="350"/><use xlink:href="#L1_4" x="350" y="350"/></pattern><rect x="0" y="0" width="100%" height="100%" fill="url(#pattern_L1_4)"/></g><g fi:class="KUsePattern"><pattern id="pattern_L1_5" width="350" height="350" patternUnits="userSpaceOnUse"><use xlink:href="#L1_5" x="-350" y="-350"/><use xlink:href="#L1_5" x="0" y="-350"/><use xlink:href="#L1_5" x="350" y="-350"/><use xlink:href="#L1_5" x="-350" y="0"/><use xlink:href="#L1_5" x="0" y="0"/><use xlink:href="#L1_5" x="350" y="0"/><use xlink:href="#L1_5" x="-350" y="350"/><use xlink:href="#L1_5" x="0" y="350"/><use xlink:href="#L1_5" x="350" y="350"/></pattern><rect x="0" y="0" width="100%" height="100%" fill="url(#pattern_L1_5)"/></g><g fi:class="KUsePattern"><pattern id="pattern_L1_6" width="350" height="350" patternUnits="userSpaceOnUse"><use xlink:href="#L1_6" x="-350" y="-350"/><use xlink:href="#L1_6" x="0" y="-350"/><use xlink:href="#L1_6" x="350" y="-350"/><use xlink:href="#L1_6" x="-350" y="0"/><use xlink:href="#L1_6" x="0" y="0"/><use xlink:href="#L1_6" x="350" y="0"/><use xlink:href="#L1_6" x="-350" y="350"/><use xlink:href="#L1_6" x="0" y="350"/><use xlink:href="#L1_6" x="350" y="350"/></pattern><rect x="0" y="0" width="100%" height="100%" fill="url(#pattern_L1_6)"/></g><g fi:class="KUsePattern"><pattern id="pattern_L1_7" width="350" height="350" patternUnits="userSpaceOnUse"><use xlink:href="#L1_7" x="-350" y="-350"/><use xlink:href="#L1_7" x="0" y="-350"/><use xlink:href="#L1_7" x="350" y="-350"/><use xlink:href="#L1_7" x="-350" y="0"/><use xlink:href="#L1_7" x="0" y="0"/><use xlink:href="#L1_7" x="350" y="0"/><use xlink:href="#L1_7" x="-350" y="350"/><use xlink:href="#L1_7" x="0" y="350"/><use xlink:href="#L1_7" x="350" y="350"/></pattern><rect x="0" y="0" width="100%" height="100%" fill="url(#pattern_L1_7)"/></g><g fi:class="KUsePattern"><pattern id="pattern_L1_8" width="350" height="350" patternUnits="userSpaceOnUse"><use xlink:href="#L1_8" x="-350" y="-350"/><use xlink:href="#L1_8" x="0" y="-350"/><use xlink:href="#L1_8" x="350" y="-350"/><use xlink:href="#L1_8" x="-350" y="0"/><use xlink:href="#L1_8" x="0" y="0"/><use xlink:href="#L1_8" x="350" y="0"/><use xlink:href="#L1_8" x="-350" y="350"/><use xlink:href="#L1_8" x="0" y="350"/><use xlink:href="#L1_8" x="350" y="350"/></pattern><rect x="0" y="0" width="100%" height="100%" fill="url(#pattern_L1_8)"/></g></svg>